<svg xmlns="http://www.w3.org/2000/svg" width="768" height="768" viewBox="0 0 768 768" version="1.1">
	<path fill-opacity="0.267" d="M -0 384.001 L -0 768.003 384.250 767.751 L 768.500 767.500 768.751 383.750 L 769.003 0 384.501 0 L 0 0 -0 384.001 M 0.495 384.500 C 0.495 595.700, 0.610 681.951, 0.750 576.169 C 0.890 470.386, 0.890 297.586, 0.750 192.169 C 0.610 86.751, 0.495 173.300, 0.495 384.500 M 224.346 127.126 C 190.729 130.394, 165.940 145.656, 153.898 170.500 C 145.446 187.937, 144.037 201.279, 144.015 264.085 C 143.992 327.201, 145.413 469.397, 145.991 461.831 C 146.537 454.682, 148 451.329, 148 457.226 C 148 459.455, 148.556 460.999, 149.488 461.357 C 151.124 461.985, 151.133 459.965, 149.500 458.765 C 148.893 458.319, 149.025 458.025, 149.837 458.015 C 150.572 458.007, 151.687 459.359, 152.314 461.020 C 152.980 462.785, 153.983 463.837, 154.727 463.551 C 155.873 463.111, 156.440 464.211, 156.118 466.250 C 156.053 466.663, 157.463 467.007, 159.250 467.015 C 161.588 467.026, 162.097 467.285, 161.065 467.939 C 159.977 468.627, 160.460 469.068, 163.065 469.761 C 165.341 470.367, 166.453 471.236, 166.361 472.337 C 166.198 474.286, 166.478 474.349, 169.081 472.957 C 170.589 472.149, 171.163 472.262, 171.622 473.457 C 171.948 474.306, 172.825 475, 173.572 475 C 174.319 475, 175.402 475.883, 175.980 476.963 C 176.657 478.228, 177.616 478.701, 178.679 478.293 C 179.586 477.945, 180.089 478.074, 179.797 478.580 C 179.061 479.855, 182.512 485.554, 183.844 485.262 C 184.440 485.131, 184.699 485.621, 184.419 486.352 C 184.138 487.082, 184.604 488.257, 185.454 488.962 C 186.305 489.668, 187 490.897, 187 491.694 C 187 493.291, 189.352 496, 190.737 496 C 191.222 496, 192.491 496.676, 193.559 497.502 C 195.471 498.982, 195.470 498.995, 193.500 498.355 C 192.064 497.889, 191.787 498.020, 192.517 498.820 C 193.077 499.433, 194.580 499.661, 195.857 499.327 C 197.762 498.829, 198.072 498.250, 197.584 496.110 C 195.730 487.986, 194.273 469.955, 194.658 459.908 C 194.898 453.634, 195.477 409.350, 195.945 361.500 C 196.621 292.284, 197.085 273.235, 198.215 268.311 C 200.849 256.836, 207.422 249.534, 223 240.776 C 225.475 239.385, 230.425 236.560, 234 234.499 C 242.440 229.633, 254.094 224, 255.722 224 C 256.516 224, 257 225.325, 257 227.500 C 257 232.366, 258.503 231.868, 260.631 226.297 C 262.588 221.173, 271.532 209.347, 277.209 204.379 C 279.973 201.960, 282.093 201.102, 286.638 200.564 C 289.862 200.182, 300.375 198.491, 310 196.805 C 326.215 193.966, 329.923 193.690, 360.500 193.045 C 406.679 192.070, 449.163 193.238, 464 195.891 C 475.988 198.035, 500.712 201, 506.595 201 C 508.614 201, 510.029 200.491, 510.072 199.750 C 510.160 198.230, 517 192.380, 517 193.825 C 517 194.387, 515.875 196.184, 514.500 197.818 C 513.125 199.452, 512 201.131, 512 201.549 C 512 203.078, 537.386 201.083, 544.984 198.958 C 558.082 195.292, 567.330 189.541, 571.633 182.384 C 572.256 181.348, 573.119 180.838, 573.551 181.252 C 573.983 181.665, 574.547 191.486, 574.804 203.075 C 575.269 224.055, 575.278 224.131, 577.008 220.324 L 578.746 216.500 579.517 219.393 C 579.942 220.985, 579.935 229.535, 579.502 238.393 C 579.069 247.252, 578.759 256.750, 578.812 259.500 C 578.865 262.250, 578.187 270.350, 577.304 277.500 C 575.966 288.340, 575.683 303.375, 575.600 368 C 575.492 451.655, 575.927 482, 577.233 482 C 577.690 482, 578.424 482.972, 578.864 484.160 C 579.548 486.010, 579.755 486.082, 580.300 484.660 C 580.650 483.747, 580.501 483, 579.969 483 C 579.436 483, 579 482.336, 579 481.525 C 579 480.354, 579.530 480.251, 581.565 481.025 C 585.474 482.511, 586.051 482.264, 585.018 479.548 C 584.268 477.574, 584.370 477.205, 585.543 477.655 C 587.534 478.419, 587.383 477.001, 585.313 475.487 C 583.784 474.369, 583.854 474.183, 586.063 473.503 C 588.780 472.665, 592 469.672, 592 467.983 C 592 467.377, 592.450 467.160, 593 467.500 C 593.550 467.840, 594 467.679, 594 467.142 C 594 466.606, 593.438 465.940, 592.750 465.662 C 592.003 465.361, 592.205 465.126, 593.250 465.079 C 594.212 465.036, 595 464.520, 595 463.933 C 595 463.320, 595.853 463.136, 597 463.500 C 599.173 464.190, 599.649 463.049, 597.913 461.313 C 597.130 460.530, 597.173 460.011, 598.067 459.458 C 598.920 458.931, 599.056 459.101, 598.500 460 C 597.965 460.866, 598.082 461.068, 598.845 460.595 C 599.480 460.203, 600 459.234, 600 458.441 C 600 457.648, 600.450 457, 601 457 C 601.550 457, 602 457.482, 602 458.071 C 602 458.661, 602.674 458.469, 603.497 457.646 C 605.386 455.757, 604.431 452.922, 602.167 453.698 C 600.916 454.126, 600.989 453.889, 602.458 452.746 C 603.535 451.908, 605.110 451.464, 605.958 451.758 C 607.188 452.186, 607.254 452.029, 606.284 450.981 C 605.314 449.933, 605.618 449.151, 607.784 447.119 C 609.278 445.718, 611.175 444.555, 612 444.536 C 613.060 444.510, 613.500 443.401, 613.500 440.749 C 613.500 438.686, 613.837 436.999, 614.250 436.999 C 614.663 437, 615 437.450, 615 438 C 615 438.550, 615.450 439, 616 439 C 616.550 439, 617 438.052, 617 436.893 C 617 435.358, 617.442 434.955, 618.627 435.410 C 619.521 435.754, 620.871 435.522, 621.627 434.895 C 622.549 434.129, 623 434.104, 623 434.819 C 623 435.403, 622.550 436.160, 622 436.500 C 620.691 437.309, 620.712 439, 622.031 439 C 622.599 439, 623.353 438.212, 623.708 437.250 C 624.064 436.288, 624.713 435.256, 625.151 434.957 C 626.460 434.065, 626.321 205.692, 625.006 197.500 C 622.536 182.121, 616.754 169.195, 606.604 156.358 C 594.980 141.658, 579.181 132.904, 556 128.318 C 548.283 126.791, 533.044 126.618, 390.500 126.437 C 304.150 126.327, 229.381 126.637, 224.346 127.126 M 245 245.154 C 239.225 248.514, 232.025 252.614, 229 254.264 C 222.125 258.014, 217.172 262.543, 215.381 266.718 C 214.285 269.271, 214.021 277.332, 214.100 305.718 C 214.155 325.398, 214.560 340.375, 215 339 C 215.757 336.637, 216.087 336.646, 216.375 339.036 C 216.444 339.607, 217.109 340.449, 217.853 340.909 C 218.956 341.591, 218.975 342.179, 217.954 344.085 C 216.703 346.424, 216.703 346.424, 219.316 344.713 C 222.707 342.491, 223.276 342.554, 222.480 345.063 C 221.888 346.928, 222.021 347.004, 223.867 345.851 C 226.200 344.394, 228.214 345.589, 225.971 347.099 C 224.798 347.889, 224.925 348.030, 226.597 347.795 C 227.750 347.633, 228.670 347.725, 228.642 348 C 228.536 349.046, 232.499 353, 233.655 353 C 234.321 353, 235.151 353.900, 235.500 355 C 235.849 356.100, 236.515 357, 236.979 357 C 237.444 357, 237.702 358.112, 237.553 359.472 C 237.403 360.832, 237.596 361.750, 237.980 361.512 C 238.838 360.982, 246.594 369.982, 246.260 371.122 C 246.128 371.572, 246.928 372.426, 248.038 373.020 C 249.151 373.616, 249.746 374.602, 249.364 375.220 C 248.909 375.957, 249.259 376.115, 250.388 375.681 C 251.332 375.319, 251.885 375.377, 251.618 375.809 C 251.351 376.242, 251.484 377.165, 251.914 377.860 C 252.343 378.556, 252.987 373.134, 253.344 365.812 C 254.115 349.999, 254.669 346.936, 256.621 347.685 C 257.399 347.983, 257.974 348.739, 257.899 349.364 C 257.565 352.156, 258.203 356.386, 258.750 355 C 259.548 352.976, 261.878 363.191, 262.057 369.500 C 262.169 373.440, 262.361 373.970, 262.960 372 C 263.830 369.141, 263.735 368.101, 261.376 354.651 C 260.426 349.234, 259.105 344.594, 258.441 344.339 C 257.668 344.042, 257.103 340.754, 256.870 335.188 C 256.235 319.998, 256.601 277.822, 257.447 268.915 C 258.272 260.215, 257.354 238.982, 256.154 239.022 C 255.794 239.034, 250.775 241.794, 245 245.154 M 308.069 257.567 C 303.545 259.530, 290.666 270, 292.776 270 C 293.370 270, 294.532 269.325, 295.357 268.500 C 296.182 267.675, 297.353 267, 297.960 267 C 298.567 267, 299.322 266.325, 299.638 265.500 C 299.955 264.675, 301.039 264, 302.048 264 C 303.057 264, 304.134 263.592, 304.442 263.094 C 304.750 262.596, 305.911 262.425, 307.022 262.716 C 309.929 263.476, 308.279 265.082, 298.892 270.625 C 294.552 273.188, 291 275.427, 291 275.600 C 291 275.774, 292.203 282.572, 293.673 290.708 C 295.618 301.469, 296.367 309.042, 296.423 318.500 C 296.497 331.074, 296.405 331.664, 293.615 336.500 C 292.028 339.250, 289.631 342.978, 288.288 344.784 C 285.579 348.427, 285.606 351.738, 288.398 358.218 C 290.197 362.394, 290.453 364.398, 289.077 363.548 C 288.569 363.234, 287.842 361.520, 287.461 359.739 C 287.081 357.957, 286.329 355.953, 285.791 355.285 C 285.254 354.617, 284.916 352.142, 285.041 349.785 C 285.353 343.916, 285.165 342.780, 284 343.500 C 282.684 344.313, 282.710 342.690, 284.033 341.367 C 284.744 340.656, 284.562 340.333, 283.447 340.333 C 280.777 340.333, 279.272 344.059, 278.631 352.250 C 277.870 361.984, 278.914 375.906, 280.228 373.557 C 281.044 372.099, 281.344 372.171, 282.925 374.208 C 283.903 375.469, 285.733 379.650, 286.991 383.500 C 288.249 387.350, 290.302 392.525, 291.553 395 C 293.998 399.838, 301.449 407.724, 302.267 406.341 C 303.517 404.229, 304.095 399, 303.079 399 C 302.486 399, 302 398.534, 302 397.965 C 302 397.282, 302.606 397.254, 303.780 397.882 C 305.895 399.014, 317.528 400.973, 328 401.961 C 332.125 402.350, 334.600 402.803, 333.500 402.966 C 332.219 403.156, 332.758 403.502, 335 403.927 C 338.989 404.685, 340.117 404.318, 337.971 402.961 C 336.913 402.292, 337.569 402.026, 340.309 402.015 C 342.790 402.005, 343.885 402.377, 343.449 403.083 C 343.081 403.678, 344.119 403.473, 345.755 402.627 C 347.392 401.780, 349.877 400.880, 351.278 400.626 C 355.637 399.836, 357.703 398.204, 360.879 393.043 C 366.667 383.636, 365.946 379.451, 359.845 387.043 C 358.058 389.267, 355.127 391.995, 353.331 393.104 C 346.420 397.375, 317.738 397.679, 311.433 393.548 C 308.984 391.944, 308.929 391.736, 310.496 390.005 C 311.440 388.961, 314.288 387.873, 317.079 387.489 C 322.399 386.757, 324.208 385.395, 321.313 384.299 C 320.316 383.922, 317.370 382.088, 314.766 380.224 C 311.215 377.682, 309.769 375.857, 308.978 372.918 C 307.764 368.408, 306.773 368.007, 305.228 371.399 C 303.980 374.139, 304.602 377.713, 306.762 380.213 C 308.437 382.150, 307.820 384.748, 305.472 385.649 C 301.227 387.278, 294.280 374.948, 292.884 363.309 C 292.369 359.014, 291.527 354.245, 291.013 352.711 C 289.388 347.867, 292.094 346.352, 303.876 345.509 C 309.436 345.111, 313.764 344.427, 313.493 343.988 C 312.679 342.671, 302.147 337, 300.515 337 C 298.215 337, 298.694 335.188, 301.742 332.363 C 305.340 329.029, 307.645 329.437, 325.500 336.568 C 342.390 343.314, 350.660 346.329, 358.114 348.459 C 362.998 349.854, 363.860 350.482, 364.734 353.282 L 365.740 356.500 366.512 352.164 C 367.074 349.005, 367.925 347.536, 369.649 346.750 C 371.670 345.829, 372.707 346.162, 376.758 349.035 C 379.366 350.884, 381.842 352.870, 382.260 353.449 C 382.677 354.027, 382.931 358.247, 382.823 362.826 C 382.608 371.928, 383.388 373.369, 387.992 372.375 C 393.133 371.264, 393.235 371.069, 390.078 368.412 C 387.197 365.988, 387 365.388, 387 359.028 L 387 352.233 395.750 345.874 C 400.563 342.377, 409.225 337.094, 415 334.134 C 420.775 331.175, 426.400 328.103, 427.500 327.308 C 429.400 325.936, 429.349 325.878, 426.472 326.148 C 423.164 326.458, 409.679 319.973, 397.740 312.328 C 394.022 309.948, 390.589 308, 390.112 308 C 389.635 308, 388.688 307.329, 388.008 306.510 C 387.311 305.670, 385.839 305.233, 384.636 305.509 C 383.049 305.873, 380.520 304.264, 374.794 299.249 C 370.556 295.537, 362.006 288.058, 355.794 282.628 C 342.831 271.297, 328.962 261.608, 321 258.319 C 314.569 255.663, 312.707 255.555, 308.069 257.567 M 311.861 259.952 L 309.500 261.905 313.233 261.324 C 317.384 260.679, 321.015 261.881, 328.300 266.313 C 330.940 267.919, 333.315 269.018, 333.577 268.756 C 334.778 267.555, 319.326 258, 316.183 258 C 315.104 258, 313.159 258.879, 311.861 259.952 M 466.250 341.089 C 462.813 342.694, 460 344.260, 460 344.570 C 460 344.879, 462.137 344.909, 464.750 344.637 C 467.363 344.364, 469.886 344.109, 470.357 344.070 C 470.828 344.032, 470.976 343.380, 470.685 342.622 C 470.394 341.864, 470.661 340.739, 471.278 340.122 C 473.169 338.231, 475.923 338.846, 476.538 341.295 C 476.855 342.557, 477.988 344.136, 479.057 344.804 C 481.524 346.344, 481.511 345.350, 479.011 341.250 C 476.557 337.226, 474.581 337.201, 466.250 341.089 M 286 342 C 286 342.550, 286.450 343, 287 343 C 287.550 343, 288 342.550, 288 342 C 288 341.450, 287.550 341, 287 341 C 286.450 341, 286 341.450, 286 342 M 460.533 371.575 C 459.646 373.698, 456.851 377.361, 454.322 379.717 C 449.799 383.929, 449.768 384, 452.457 384 C 456.397 384, 460.495 380.674, 463.044 375.409 C 465.050 371.265, 465.112 370.684, 463.703 369.274 C 462.293 367.864, 461.992 368.082, 460.533 371.575 M 382.500 374.727 C 378.892 375.240, 378.093 375.922, 377.502 378.988 C 375.736 388.161, 370.664 398.070, 363.164 407 C 357.580 413.648, 356.982 414.104, 354.750 413.410 C 353.472 413.012, 353 413.423, 353 414.933 C 353 416.333, 352.355 417, 351 417 C 349.733 417, 349 417.667, 349 418.820 C 349 421.348, 339.963 429.363, 338.623 428.023 C 337.411 426.811, 338.586 425.438, 341.500 424.661 C 343.022 424.256, 342.902 424.166, 341 424.283 C 339.625 424.369, 337.908 424.070, 337.183 423.619 C 336.350 423.100, 335.311 423.479, 334.352 424.650 C 332.990 426.313, 332.892 426.323, 333.387 424.750 C 333.690 423.788, 333.564 423, 333.108 423 C 332.652 423, 332.005 425.311, 331.670 428.136 C 330.994 433.844, 330.311 435.121, 329.036 433.059 C 328.331 431.917, 327.868 431.990, 326.385 433.472 C 325.241 434.616, 324.452 434.856, 324.211 434.134 C 323.732 432.696, 321 432.639, 321 434.067 C 321 434.707, 320.132 434.859, 318.835 434.448 C 316.892 433.831, 316.953 434.044, 319.431 436.522 C 322.463 439.553, 324.945 444.811, 326.975 452.500 C 328.743 459.198, 329.611 459.902, 330.454 455.325 C 332.360 444.975, 340.006 434.991, 347.466 433.113 C 349.897 432.501, 353.261 432, 354.943 432 L 358 432 358 424.300 C 358 416.571, 359.529 414.944, 360.179 421.982 C 360.481 425.258, 360.797 425.537, 365.500 426.687 C 368.250 427.359, 372.975 428.533, 376 429.295 C 382.300 430.881, 388.612 430.453, 389.406 428.384 C 389.976 426.898, 388.174 377.404, 387.471 375.250 C 387.246 374.563, 386.711 374.067, 386.281 374.150 C 385.852 374.232, 384.150 374.492, 382.500 374.727 M 361 378 C 361 378.550, 361.450 379, 362 379 C 362.550 379, 363 378.550, 363 378 C 363 377.450, 362.550 377, 362 377 C 361.450 377, 361 377.450, 361 378 M 469.286 386.003 C 465.319 389.820, 460.526 393.589, 458.635 394.379 C 454.005 396.314, 442.829 397.971, 433.308 398.134 L 425.500 398.268 433 399.265 C 438.217 399.958, 443.677 399.917, 450.937 399.130 C 462.560 397.869, 468.827 395.457, 471.979 391.029 C 474.443 387.569, 478.187 378.989, 477.214 379.032 C 476.822 379.049, 473.254 382.186, 469.286 386.003 M 328.813 405.683 C 329.534 405.972, 330.397 405.936, 330.729 405.604 C 331.061 405.272, 330.471 405.036, 329.417 405.079 C 328.252 405.127, 328.015 405.364, 328.813 405.683 M 307.708 410.877 C 310.013 413.093, 311.562 413.718, 310.503 412.005 C 310.165 411.458, 308.901 410.503, 307.694 409.882 L 305.500 408.753 307.708 410.877 M 317 411 C 317 411.550, 317.423 412, 317.941 412 C 318.459 412, 319.160 411.550, 319.500 411 C 319.840 410.450, 319.416 410, 318.559 410 C 317.702 410, 317 410.450, 317 411 M 312.500 414 C 312.840 414.550, 313.541 415, 314.059 415 C 314.577 415, 315 414.550, 315 414 C 315 413.450, 314.298 413, 313.441 413 C 312.584 413, 312.160 413.450, 312.500 414 M 337 419 C 337 420.111, 337.667 421, 338.500 421 C 339.333 421, 340 420.111, 340 419 C 340 417.889, 339.333 417, 338.500 417 C 337.667 417, 337 417.889, 337 419 M 614.500 434 C 614.840 434.550, 615.316 435, 615.559 435 C 615.802 435, 616 434.550, 616 434 C 616 433.450, 615.523 433, 614.941 433 C 614.359 433, 614.160 433.450, 614.500 434 M 610 441.441 C 610 442.298, 610.450 443, 611 443 C 611.550 443, 612 442.577, 612 442.059 C 612 441.541, 611.550 440.840, 611 440.500 C 610.450 440.160, 610 440.584, 610 441.441 M 346.631 465.750 C 344.634 469.616, 344.098 476.583, 345.825 476.225 C 346.747 476.034, 346.948 476.587, 346.486 478.043 C 345.675 480.600, 349.356 486.230, 355.610 491.994 C 360.423 496.431, 360.701 496.495, 367.924 494.828 C 372.051 493.875, 373 493.262, 373 491.547 C 373 489.464, 370.757 488.462, 361.876 486.581 C 357.146 485.579, 354.765 482.802, 354.643 478.145 C 354.512 473.184, 355.778 472.037, 361.405 472.015 C 365.295 472, 365.303 471.992, 363.430 469.923 C 361.328 467.600, 352.191 463, 349.679 463 C 348.784 463, 347.412 464.238, 346.631 465.750 M 255.702 467.196 C 254.326 469.160, 253.938 469.279, 253.075 468 C 252.240 466.764, 251.706 466.720, 250.044 467.750 C 248.935 468.438, 247.332 469, 246.482 469 C 245.632 469, 244.678 469.675, 244.362 470.500 C 244.045 471.325, 242.987 472, 242.010 472 C 241.033 472, 239.998 472.900, 239.710 474 C 239.423 475.100, 238.444 476, 237.535 476 C 236.561 476, 236.169 475.536, 236.580 474.870 C 237.006 474.181, 236.737 473.931, 235.889 474.228 C 235.125 474.496, 234.557 475.419, 234.626 476.279 C 234.702 477.227, 234.205 477.632, 233.363 477.309 C 232.599 477.016, 231.387 477.264, 230.669 477.860 C 229.712 478.654, 228.764 478.523, 227.121 477.372 C 225.073 475.938, 224.718 475.946, 223.042 477.462 C 221.596 478.771, 221.078 478.845, 220.598 477.811 C 220.262 477.090, 220.251 477.850, 220.572 479.500 C 220.893 481.150, 221.796 483.210, 222.578 484.079 C 223.360 484.947, 224 486.132, 224 486.712 C 224 488.546, 231.168 494.316, 241 500.398 C 246.225 503.630, 252.975 507.872, 256 509.825 C 264.256 515.154, 275.574 522.110, 295 533.793 C 304.625 539.582, 320.150 549.107, 329.500 554.960 C 338.850 560.813, 348.300 566.618, 350.500 567.859 L 354.500 570.117 351.611 567.808 C 345.207 562.691, 344.473 561.987, 346.149 562.566 C 347.056 562.880, 348.095 562.656, 348.458 562.068 C 348.821 561.481, 348.622 561, 348.015 561 C 347.409 561, 347.045 560.409, 347.206 559.687 C 347.469 558.514, 344.124 554.780, 340 551.641 C 339.175 551.014, 337.825 549.628, 337 548.563 C 335.636 546.802, 335.659 546.685, 337.250 547.281 C 338.212 547.642, 338.999 547.614, 338.999 547.219 C 338.997 546.302, 316.154 523.788, 295.755 504.596 C 279.091 488.917, 274.642 483.676, 269 473.076 C 265.710 466.894, 265.290 466.500, 262 466.500 C 260.075 466.500, 258.233 466.138, 257.908 465.696 C 257.582 465.254, 256.589 465.929, 255.702 467.196 M 145.079 470.583 C 145.127 471.748, 145.364 471.985, 145.683 471.188 C 145.972 470.466, 145.936 469.603, 145.604 469.271 C 145.272 468.939, 145.036 469.529, 145.079 470.583 M 158 470.393 C 158 470.609, 158.675 471.045, 159.500 471.362 C 160.325 471.678, 161 471.501, 161 470.969 C 161 470.436, 160.325 470, 159.500 470 C 158.675 470, 158 470.177, 158 470.393 M 161.575 472.879 C 161.265 473.380, 161.684 474.048, 162.506 474.364 C 163.328 474.679, 164 474.528, 164 474.028 C 164 472.672, 162.223 471.830, 161.575 472.879 M 169.813 476.683 C 170.534 476.972, 171.397 476.936, 171.729 476.604 C 172.061 476.272, 171.471 476.036, 170.417 476.079 C 169.252 476.127, 169.015 476.364, 169.813 476.683 M 341 559.893 C 341 560.384, 341.652 561.036, 342.449 561.342 C 343.418 561.714, 343.714 561.418, 343.342 560.449 C 342.735 558.867, 341 558.455, 341 559.893 M 362 576.049 C 365.469 578.403, 367.444 579.088, 365 577.089 C 363.625 575.965, 362.050 575.041, 361.500 575.038 C 360.950 575.034, 361.175 575.489, 362 576.049" stroke="none" fill="black" fill-rule="evenodd"/>
	<path fill-opacity="0.422" d="M -0 384.001 L -0 768.003 384.250 767.751 L 768.500 767.500 768.751 383.750 L 769.003 0 384.501 0 L 0 0 -0 384.001 M 0.495 384.500 C 0.495 595.700, 0.610 681.951, 0.750 576.169 C 0.890 470.386, 0.890 297.586, 0.750 192.169 C 0.610 86.751, 0.495 173.300, 0.495 384.500 M 224.938 126.122 C 198.217 128.490, 175.762 139.281, 161.654 156.534 C 155.742 163.764, 149.809 175.705, 146.764 186.500 L 144.507 194.500 144.203 369.500 C 143.888 550.771, 144.106 562.830, 147.971 577.804 C 155.643 607.530, 173.456 627.440, 200.444 636.456 C 215.998 641.653, 208.558 641.427, 376 641.778 C 543.236 642.129, 551.773 641.931, 566.292 637.353 C 591.957 629.261, 610.070 613.002, 618.884 590.144 C 622.271 581.360, 625.480 565.542, 626.519 552.500 C 626.913 547.550, 627.206 466.775, 627.169 373 C 627.103 207.762, 627.041 202.217, 625.147 193.340 C 624.072 188.302, 621.928 181.327, 620.381 177.840 C 605.549 144.396, 581.907 128.941, 541.073 125.996 C 524.425 124.796, 238.623 124.910, 224.938 126.122 M 568.391 188.536 C 563.338 193.787, 549.918 200.442, 541.297 201.971 C 533.285 203.392, 503.756 203.420, 489 202.021 C 482.675 201.421, 471.200 199.785, 463.500 198.384 C 454.422 196.733, 448.094 196.069, 445.500 196.494 C 443.300 196.854, 439.025 197.361, 436 197.619 C 432.975 197.878, 425.253 198.969, 418.839 200.045 C 404.906 202.381, 405.019 202.376, 407.598 200.569 C 408.721 199.782, 412.871 198.359, 416.820 197.405 C 420.769 196.452, 424 195.252, 424 194.737 C 424 194.167, 415.504 194.031, 402.250 194.389 C 376.078 195.096, 366.817 195.701, 353 197.610 C 337.912 199.693, 337.028 199.764, 337.601 198.837 C 337.885 198.377, 338.718 198, 339.452 198 C 340.186 198, 341.065 197.272, 341.407 196.382 C 341.957 194.948, 341.259 194.846, 335.264 195.487 C 331.544 195.885, 327.375 196.775, 326 197.465 C 324.625 198.155, 322.278 199.012, 320.785 199.370 C 318.921 199.817, 318.250 200.487, 318.642 201.510 C 318.957 202.330, 318.716 203, 318.107 203 C 317.498 203, 317 202.550, 317 202 C 317 200.498, 314.345 200.798, 312.652 202.491 C 311.646 203.497, 310.158 203.782, 308.080 203.366 C 306.100 202.970, 305 203.152, 305 203.875 C 305 204.494, 304.523 205, 303.941 205 C 303.359 205, 303.160 204.550, 303.500 204 C 303.840 203.450, 303.948 203, 303.741 203 C 303.131 203, 292.640 206.049, 291 206.703 C 288.382 207.747, 279 208.198, 279 207.281 C 279 206.796, 279.563 205.791, 280.250 205.046 C 280.938 204.302, 280.345 204.527, 278.934 205.546 C 273.910 209.177, 263.538 222.992, 260.745 229.774 C 257.998 236.443, 257.980 236.636, 258.597 252.500 C 259.057 264.321, 258.865 270.067, 257.860 274.500 C 255.740 283.855, 256.784 324.663, 259.574 341.500 C 259.756 342.600, 260.839 347.100, 261.980 351.500 C 263.345 356.766, 264.378 365.310, 265.002 376.500 C 266.255 398.969, 266.246 401.270, 264.900 400.438 C 264.140 399.968, 264.156 400.423, 264.953 401.911 C 265.619 403.157, 266.492 413.009, 267.024 425.282 C 268.173 451.839, 268.690 457.651, 270.406 463.353 C 271.160 465.858, 271.398 468.041, 270.934 468.204 C 269.263 468.791, 274.899 480.166, 279.570 485.634 C 282.196 488.708, 295.638 501.985, 309.440 515.138 C 345.271 549.284, 370.743 567.304, 386.845 569.898 C 393.098 570.905, 405.511 570.048, 414.392 567.998 C 423.028 566.003, 421.886 567.481, 407.184 577.318 C 389.481 589.165, 378.674 589.103, 361.500 577.058 C 350.647 569.446, 321.274 550.905, 290.500 532.242 C 247.091 505.917, 230.477 495.242, 226.095 490.860 C 221.006 485.771, 217.385 478.414, 215.570 469.476 C 214.316 463.305, 211.995 406.515, 211.999 382.095 L 212 374.690 209.828 376.595 C 208.634 377.643, 207.996 377.919, 208.412 377.210 C 208.975 376.249, 208.554 376.074, 206.765 376.523 C 204.905 376.990, 204.110 376.603, 203.249 374.813 C 202.379 373.007, 202.121 372.883, 202.068 374.250 C 201.920 378.076, 200.023 375.691, 199.284 370.750 C 198.265 363.928, 197.468 388.405, 197.170 435.686 L 196.954 469.871 199.836 478.186 C 201.421 482.758, 204.137 489.313, 205.873 492.750 C 209.236 499.410, 208.803 500.963, 204.977 495.970 C 203.293 493.773, 202.439 493.290, 201.869 494.212 C 200.829 495.894, 201.541 498.884, 205.270 508.500 C 213.609 530.005, 223.921 541.095, 250.215 556.839 C 257.253 561.053, 264.246 565.177, 265.755 566.005 C 274.615 570.865, 279.043 573.362, 283.500 576.011 C 286.250 577.645, 290.975 580.267, 294 581.836 C 297.025 583.406, 303.550 587.082, 308.500 590.005 C 313.450 592.928, 320.304 596.935, 323.731 598.910 C 327.158 600.884, 335.258 605.561, 341.731 609.303 C 348.204 613.045, 354.850 616.377, 356.500 616.708 C 358.150 617.039, 360.573 618.140, 361.885 619.155 C 363.197 620.170, 364.997 621.033, 365.885 621.073 C 366.773 621.113, 368.850 622.001, 370.500 623.045 C 377.311 627.356, 380.963 628.926, 385.609 629.542 C 391.180 630.282, 401.555 628.660, 403.918 626.681 C 404.788 625.952, 407.525 624.735, 410 623.976 C 412.475 623.218, 420.243 619.100, 427.263 614.825 C 434.283 610.551, 444.183 604.920, 449.263 602.314 C 454.343 599.707, 459.892 596.545, 461.594 595.287 C 463.296 594.029, 465.292 593, 466.030 593 C 466.768 593, 468.364 592.067, 469.577 590.927 C 470.791 589.787, 472.395 588.757, 473.142 588.638 C 473.889 588.519, 475.625 587.712, 477 586.845 C 481.787 583.825, 491.363 579, 492.571 579 C 493.239 579, 494.063 578.278, 494.401 577.396 C 494.740 576.514, 495.655 576.037, 496.435 576.337 C 497.215 576.636, 498.392 576.233, 499.049 575.441 C 499.707 574.648, 500.896 574, 501.692 574 C 502.488 574, 505.102 572.650, 507.500 571 C 509.898 569.350, 512.342 568, 512.930 568 C 513.519 568, 514 567.546, 514 566.992 C 514 566.437, 515.765 565.277, 517.923 564.414 C 520.080 563.551, 522.091 562.205, 522.391 561.422 C 522.692 560.640, 523.589 560, 524.385 560 C 525.182 560, 525.983 559.663, 526.167 559.250 C 526.350 558.837, 529.200 556.728, 532.500 554.562 C 535.800 552.396, 538.950 550.146, 539.500 549.562 C 540.050 548.978, 542.552 546.853, 545.060 544.839 C 554.739 537.067, 563.682 522.028, 568.490 505.437 C 573.692 487.485, 574 480.091, 574 373 C 574 309.631, 574.360 273.241, 575.010 270.993 C 577.951 260.826, 580.058 230.222, 578.038 227.028 C 577.089 225.527, 576.921 225.766, 575.435 230.750 C 575.230 231.438, 574.694 232, 574.243 232 C 573.792 232, 573.585 223.563, 573.783 213.250 C 573.982 202.938, 573.774 192.197, 573.322 189.382 L 572.500 184.265 568.391 188.536 M 300.813 207.683 C 301.534 207.972, 302.397 207.936, 302.729 207.604 C 303.061 207.272, 302.471 207.036, 301.417 207.079 C 300.252 207.127, 300.015 207.364, 300.813 207.683 M 295.250 208.718 C 293.532 209.334, 293.672 211, 295.441 211 C 297.097 211, 298.408 209.351, 297.266 208.704 C 296.845 208.465, 295.938 208.472, 295.250 208.718 M 288.543 210.931 C 288.226 211.443, 288.425 212.144, 288.984 212.490 C 290.177 213.227, 292 212.291, 292 210.941 C 292 209.724, 289.293 209.716, 288.543 210.931 M 306.392 257.374 C 300.500 260.145, 281.819 277.518, 280.168 281.760 C 278.753 285.398, 277.136 360.604, 278.109 377.500 C 279.711 405.292, 285.568 415.794, 306.834 429.006 C 320.320 437.386, 322.216 439.664, 326.097 452.155 C 329.374 462.704, 330.176 463.160, 331.391 455.167 C 333.298 442.630, 343.091 433, 353.933 433 C 356.940 433, 358.202 432.492, 359.028 430.948 C 359.982 429.165, 360.739 428.981, 364.813 429.544 C 367.391 429.900, 372.040 430.823, 375.144 431.595 C 386.252 434.359, 390.829 432.997, 393.117 426.247 C 394.651 421.719, 394.333 417.964, 392.288 416.469 C 391.067 415.576, 390.634 411.417, 390.047 394.931 C 389.647 383.694, 389.499 374.163, 389.719 373.750 C 389.938 373.337, 391.141 373, 392.392 373 C 396.212 373, 396.179 371.809, 392.256 368.135 C 388.907 364.997, 388.717 364.571, 390.500 364.205 C 391.600 363.979, 393.175 363.219, 394 362.517 C 396.858 360.086, 401.915 358, 404.950 358 C 407.529 358, 408 357.618, 408 355.523 C 408 354.051, 408.913 352.457, 410.250 351.594 C 413.009 349.814, 455.534 333.183, 467 329.401 C 467.825 329.128, 470.043 330.047, 471.928 331.441 C 475.863 334.351, 476.731 334.170, 474.831 330.836 C 472.838 327.339, 473.164 297.156, 475.323 285.250 C 476.245 280.162, 477 275.611, 477 275.137 C 477 274.100, 463.143 271.715, 457.450 271.773 C 453.390 271.813, 441.863 276.093, 432.500 281.035 C 404.862 295.624, 395.675 300.136, 392.891 300.489 C 391.094 300.716, 388.377 301.824, 386.852 302.951 C 385.328 304.078, 383.725 304.975, 383.290 304.945 C 382.297 304.875, 373.803 297.733, 357.330 283.116 C 350.273 276.855, 340.675 269.158, 336 266.011 C 319.636 254.998, 314.578 253.522, 306.392 257.374 M 302.750 332.354 C 301.788 333.106, 301.013 334.121, 301.030 334.610 C 301.046 335.100, 304.194 337.300, 308.025 339.500 C 311.856 341.700, 315.010 343.950, 315.033 344.500 C 315.076 345.509, 317.628 347.509, 330.142 356.340 C 333.914 359.002, 337 361.589, 337 362.090 C 337 362.600, 329.802 363, 320.635 363 C 305.454 363, 304.074 363.154, 301.564 365.129 C 298.191 367.782, 299.442 369.307, 303.933 368.019 C 308.072 366.832, 308.609 367.148, 309.418 371.239 C 310.195 375.166, 311.279 376.584, 316.500 380.500 C 320.253 383.315, 321.056 383.500, 329.500 383.500 C 334.450 383.500, 342.009 383.122, 346.298 382.660 C 352.808 381.959, 353.904 381.590, 352.936 380.423 C 351.491 378.682, 352.420 376, 354.469 376 C 355.311 376, 356.014 375.438, 356.032 374.750 C 356.049 374.061, 356.740 374.395, 357.571 375.495 C 358.635 376.903, 359.294 377.142, 359.810 376.308 C 360.212 375.657, 361.753 374.664, 363.235 374.101 C 366.338 372.921, 367.868 374.249, 366 376.500 C 364.532 378.269, 365.557 380.107, 367.579 379.331 C 368.583 378.946, 368.994 377.704, 368.797 375.652 C 368.539 372.964, 368.971 372.329, 372.060 370.859 C 374.018 369.926, 376.210 368.451, 376.933 367.581 C 378.069 366.211, 377.860 365.922, 375.373 365.422 C 371.322 364.608, 364.566 359.783, 364.216 357.455 C 363.280 351.231, 363.330 351.274, 353.252 347.941 C 347.888 346.167, 336.211 341.879, 327.302 338.413 C 308.980 331.284, 305.288 330.373, 302.750 332.354 M 475 336.046 C 474.175 336.517, 470.238 338.360, 466.250 340.142 C 456.624 344.445, 456.751 345.966, 466.750 346.118 C 471.012 346.184, 475.136 346.147, 475.914 346.037 C 476.691 345.927, 478.378 346.399, 479.662 347.087 C 482.959 348.851, 483.585 347.621, 481.610 343.260 C 478.998 337.495, 476.754 335.046, 475 336.046 M 446.731 353.780 C 440.962 357.476, 435.400 361.060, 434.371 361.745 C 432.840 362.764, 434.403 362.897, 442.970 362.478 C 450.783 362.095, 453.651 361.589, 454.270 360.482 C 454.726 359.667, 455.686 359, 456.404 359 C 458.864 359, 466.977 349.644, 465.659 348.326 C 465.384 348.051, 463.372 347.653, 461.189 347.443 C 457.689 347.106, 455.977 347.856, 446.731 353.780 M 459.489 370.681 C 457.566 375.284, 454.794 378.389, 449.500 381.870 C 445.587 384.443, 445.166 384.497, 430.179 384.345 C 421.752 384.260, 414.631 383.965, 414.355 383.688 C 414.079 383.412, 414.558 381.823, 415.419 380.156 C 417.092 376.921, 416.636 374, 414.458 374 C 411.691 374, 408.148 375.959, 407.559 377.815 C 406.939 379.767, 411.616 392, 412.982 392 C 414.288 392, 417.241 404.905, 416.558 407.627 C 416.193 409.077, 414.934 411.042, 413.759 411.994 C 411.641 413.709, 411.638 413.764, 413.433 418.464 C 414.657 421.667, 415.058 424.564, 414.670 427.393 L 414.096 431.582 421.294 433.436 C 427.756 435.101, 429.081 435.892, 434.246 441.171 C 438.324 445.339, 440.019 446.534, 440.064 445.275 C 440.099 444.299, 440.073 439.354, 440.006 434.286 L 439.884 425.072 446.629 420.286 C 450.339 417.654, 454.190 414.712, 455.187 413.750 C 456.184 412.788, 457.499 412, 458.108 412 C 458.789 412, 458.997 410.938, 458.648 409.250 C 458.335 407.738, 458.324 407.063, 458.623 407.750 C 459.524 409.822, 461.184 409.154, 460.498 406.995 C 460.076 405.664, 460.388 404.788, 461.425 404.390 C 463.833 403.466, 462.248 402.013, 458.691 401.884 C 455.925 401.783, 456.231 401.555, 460.983 400.177 C 464.814 399.065, 467.716 397.336, 470.612 394.441 C 475.505 389.548, 481.264 378.134, 480.814 374.223 L 480.500 371.500 477.695 374.500 C 476.152 376.150, 473.641 379.031, 472.115 380.901 C 469.758 383.790, 468.923 384.197, 466.566 383.606 C 463.575 382.855, 463.577 383.022, 466.485 375.087 C 468.258 370.251, 467.669 368.865, 463.287 367.552 C 461.418 366.992, 460.827 367.479, 459.489 370.681 M 211.079 371.583 C 211.127 372.748, 211.364 372.985, 211.683 372.188 C 211.972 371.466, 211.936 370.603, 211.604 370.271 C 211.272 369.939, 211.036 370.529, 211.079 371.583 M 207 373.559 C 207 374.416, 207.457 374.835, 208.016 374.490 C 208.575 374.144, 208.774 373.443, 208.457 372.931 C 207.600 371.544, 207 371.802, 207 373.559 M 370.219 379 C 370.128 382.208, 370.873 382.727, 372.800 380.800 C 374.659 378.941, 374.262 376, 372.152 376 C 370.785 376, 370.282 376.780, 370.219 379 M 441.697 447.041 C 439.939 449.094, 439.372 453, 440.832 453 C 441.620 453, 444.239 445.906, 443.664 445.331 C 443.515 445.182, 442.630 445.952, 441.697 447.041 M 343.618 461.489 C 340.893 463.552, 341.129 472.569, 344.066 478.637 C 346.742 484.164, 357.370 495.804, 360.447 496.576 C 361.653 496.879, 365.069 496.511, 368.038 495.759 C 373.818 494.294, 374.690 493.089, 374.900 486.269 C 374.990 483.366, 374.519 482.809, 370.250 480.769 C 367.637 479.521, 365.500 477.825, 365.500 477 C 365.500 475.748, 368.544 475.378, 383.939 474.761 C 394.081 474.354, 402.833 473.567, 403.389 473.011 C 404.070 472.330, 402.948 471.980, 399.950 471.938 C 392.193 471.829, 386.550 470.898, 384.962 469.463 C 384.115 468.698, 379.165 467.370, 373.962 466.510 C 361.328 464.424, 351.107 461.983, 350.432 460.890 C 349.600 459.543, 345.739 459.882, 343.618 461.489 M 522 478.059 C 522 478.641, 522.450 478.840, 523 478.500 C 523.550 478.160, 524 477.684, 524 477.441 C 524 477.198, 523.550 477, 523 477 C 522.450 477, 522 477.477, 522 478.059 M 396 489.429 C 396 491.508, 396.780 492.085, 401.404 493.429 C 407.693 495.257, 408 495.289, 408 494.117 C 408 493.631, 407.098 492.997, 405.996 492.709 C 404.846 492.408, 404.207 491.613, 404.496 490.843 C 405.037 489.402, 400.851 487, 397.801 487 C 396.561 487, 396 487.756, 396 489.429 M 523 487.883 C 523 488.369, 522.100 489.002, 521 489.290 C 518.990 489.815, 518.131 493, 520 493 C 520.550 493, 521 493.675, 521 494.500 C 521 495.325, 520.550 496, 520 496 C 519.450 496, 519 495.325, 519 494.500 C 519 493.675, 518.753 493, 518.450 493 C 516.833 493, 511.843 496.356, 508.493 499.696 C 506.116 502.067, 504.519 503.029, 504.256 502.250 C 503.661 500.489, 500 500.687, 500 502.480 C 500 504.373, 492.029 508.614, 491.937 506.770 C 491.902 506.072, 491.466 506.512, 490.969 507.750 C 490.471 508.988, 489.262 510.013, 488.282 510.030 C 487.302 510.046, 482.900 513.490, 478.500 517.682 C 474.100 521.875, 469.318 526.030, 467.874 526.917 C 464.440 529.023, 444.924 547.257, 445.494 547.827 C 445.735 548.068, 444.822 549.138, 443.466 550.205 C 440.098 552.855, 440.334 554.675, 443.750 552.396 C 445.262 551.387, 458.875 543.098, 474 533.977 C 513.182 510.347, 515.608 508.855, 524.500 502.916 C 529.955 499.274, 531.943 497.459, 530.750 497.214 C 528.381 496.726, 528.534 494.935, 531 494.290 C 532.100 494.002, 533 493.343, 533 492.824 C 533 492.306, 532.550 492.160, 532 492.500 C 530.340 493.526, 528.568 491.903, 530.143 490.799 C 531.176 490.075, 531.207 489.728, 530.275 489.349 C 527.942 488.399, 527.698 488.510, 527.367 490.680 C 527.150 492.097, 527.640 493.015, 528.767 493.303 C 529.720 493.547, 529.081 493.691, 527.347 493.623 C 525.614 493.555, 524.379 493.201, 524.604 492.835 C 524.829 492.470, 524.447 491.943, 523.756 491.664 C 523.056 491.382, 523.349 491.123, 524.417 491.079 C 525.471 491.036, 526.037 490.704, 525.675 490.342 C 525.313 489.980, 525.519 489.080, 526.131 488.342 C 527.003 487.291, 526.785 487, 525.122 487 C 523.955 487, 523 487.398, 523 487.883 M 200.158 491 C 200.158 492.375, 200.385 492.938, 200.662 492.250 C 200.940 491.563, 200.940 490.438, 200.662 489.750 C 200.385 489.063, 200.158 489.625, 200.158 491 M 526.015 495.750 C 526.049 497.392, 527.939 499.391, 528.696 498.584 C 529.138 498.112, 528.935 497.524, 528.244 497.278 C 527.553 497.031, 527.242 496.418, 527.553 495.915 C 527.864 495.412, 527.641 495, 527.059 495 C 526.477 495, 526.007 495.337, 526.015 495.750 M 505.619 497.524 C 503.572 499.570, 503.548 501, 505.559 501 C 506.448 501, 506.823 500.522, 506.431 499.888 C 506.053 499.277, 506.351 498.401, 507.093 497.943 C 507.835 497.484, 508.171 496.838, 507.840 496.507 C 507.509 496.176, 506.510 496.633, 505.619 497.524 M 513.553 496.915 C 513.231 497.436, 513.394 498.125, 513.915 498.447 C 514.436 498.769, 515.125 498.606, 515.447 498.085 C 515.769 497.564, 515.606 496.875, 515.085 496.553 C 514.564 496.231, 513.875 496.394, 513.553 496.915 M 495 504.059 C 495 504.641, 495.450 504.840, 496 504.500 C 496.550 504.160, 497 503.684, 497 503.441 C 497 503.198, 496.550 503, 496 503 C 495.450 503, 495 503.477, 495 504.059 M 377.399 607.161 C 376.684 608.322, 384.458 609.137, 387.027 608.171 C 389.111 607.387, 388.581 607.183, 383.653 606.870 C 380.437 606.667, 377.623 606.798, 377.399 607.161" stroke="none" fill="black" fill-rule="evenodd"/>
	<path fill-opacity="0.361" d="M 762.447 139.915 C 762.758 140.418, 762.447 141.057, 761.756 141.336 C 761.065 141.614, 761.498 141.878, 762.719 141.921 C 764.296 141.977, 764.771 141.567, 764.362 140.500 C 764.045 139.675, 763.358 139, 762.834 139 C 762.310 139, 762.136 139.412, 762.447 139.915 M 759.885 143.711 C 759.822 144.145, 759.844 145.251, 759.934 146.169 C 760.054 147.387, 759.544 147.694, 758.049 147.303 C 756.659 146.939, 756 147.247, 756 148.261 C 756 150.887, 753.117 152.554, 750.932 151.190 C 748.333 149.566, 748 149.671, 748 152.117 C 748 153.741, 747.535 154.112, 746 153.710 C 744.102 153.214, 743.573 153.963, 743.908 156.675 C 744.094 158.179, 740.096 161, 737.777 161 C 736.057 161, 735.563 162.039, 735.948 164.848 C 736.210 166.761, 733.064 169.962, 731.507 169.364 C 729.388 168.551, 728.668 170.975, 730.445 172.939 C 731.899 174.546, 731.912 174.820, 730.555 175.340 C 729.713 175.664, 729.131 175.451, 729.262 174.868 C 729.393 174.285, 728.487 173.416, 727.250 172.936 C 725.569 172.285, 725 172.421, 725 173.473 C 725 175.057, 723.174 176.507, 722.291 175.624 C 721.974 175.308, 722.327 174.250, 723.075 173.274 C 723.822 172.298, 724.040 171.834, 723.559 172.241 C 723.078 172.649, 721.994 172.424, 721.150 171.741 C 719.926 170.751, 719.768 170.753, 720.367 171.750 C 720.780 172.438, 720.737 173, 720.272 173 C 719.806 173, 719.357 173.910, 719.273 175.022 C 719.190 176.134, 719.544 176.782, 720.061 176.463 C 720.577 176.143, 721 176.584, 721 177.441 C 721 178.298, 721.525 179, 722.167 179 C 722.808 179, 723.077 179.256, 722.764 179.569 C 722.451 179.882, 721.224 179.545, 720.036 178.819 C 718.200 177.697, 717.701 177.737, 716.689 179.088 C 715.296 180.948, 713 180.489, 713 178.349 C 713 177.320, 713.613 177.060, 715 177.500 C 716.345 177.927, 717 177.680, 717 176.744 C 717 175.731, 715.629 175.374, 711.942 175.427 L 706.883 175.500 709.442 177.702 C 712.503 180.337, 712.763 182.012, 710 181.290 C 708.900 181.002, 708 180.369, 708 179.883 C 708 179.398, 707.270 179, 706.378 179 C 705.049 179, 704.980 179.271, 706 180.500 C 706.685 181.325, 706.852 182.032, 706.372 182.070 C 705.893 182.109, 706.400 182.527, 707.500 183 C 709.375 183.806, 709.352 183.864, 707.143 183.930 C 705.504 183.979, 704.952 183.568, 705.330 182.583 C 705.629 181.803, 705.187 180.902, 704.347 180.580 C 702.337 179.809, 700.957 180.725, 701.601 182.403 C 701.884 183.139, 701.414 184.011, 700.557 184.340 C 699.162 184.875, 698.540 183.914, 698.882 181.750 C 698.947 181.338, 698.325 181, 697.500 181 C 696.675 181, 696 181.353, 696 181.784 C 696 182.216, 694.688 183.344, 693.085 184.290 C 690.185 186.004, 690.166 185.999, 689.164 183.256 C 688.310 180.916, 688.146 180.821, 688.079 182.628 C 688.036 183.798, 688.675 185.315, 689.500 186 C 690.325 186.685, 690.996 187.527, 690.992 187.872 C 690.978 189.022, 686.018 190.838, 685.442 189.906 C 685.134 189.408, 685.557 189, 686.382 189 C 687.207 189, 688.134 188.592, 688.442 188.093 C 688.751 187.595, 688.102 187.422, 687.001 187.710 C 685.679 188.056, 685 187.741, 685 186.783 C 685 185.986, 684.325 185.333, 683.500 185.333 C 681.736 185.333, 681.579 186.179, 683.067 187.667 C 683.824 188.424, 683.678 188.910, 682.567 189.336 C 681.566 189.720, 681 189.386, 681 188.410 C 681 187.569, 680.570 187.148, 680.044 187.473 C 679.518 187.798, 679.380 188.837, 679.738 189.782 C 680.342 191.379, 680.264 191.377, 678.623 189.750 C 676.233 187.381, 675.877 187.546, 677 190.500 C 678.198 193.650, 676.679 193.803, 674.529 190.750 C 673.207 188.874, 672.792 188.744, 672.029 189.966 C 671.454 190.888, 671.516 191.917, 672.195 192.735 C 673.061 193.779, 672.801 193.854, 670.888 193.115 C 669.575 192.607, 668.614 191.694, 668.754 191.085 C 668.924 190.342, 668.353 190.387, 667.015 191.223 C 665.362 192.255, 664.423 192.144, 661.505 190.573 C 659.571 189.531, 657.691 188.976, 657.327 189.339 C 656.964 189.703, 657.319 190, 658.115 190 C 658.954 190, 659.655 191.097, 659.779 192.606 C 659.933 194.460, 659.598 195.060, 658.619 194.684 C 657.863 194.394, 656.712 194.684, 656.063 195.328 C 655.156 196.227, 655.053 196.035, 655.618 194.500 C 656.023 193.400, 656.837 192.120, 657.427 191.656 C 658.039 191.174, 657.641 191.115, 656.500 191.519 C 652.134 193.064, 651 193.187, 651 192.117 C 651 191.502, 650.550 191, 650 191 C 649.450 191, 649 191.608, 649 192.351 C 649 193.182, 647.943 193.663, 646.250 193.601 C 644.622 193.541, 643.602 192.990, 643.750 192.250 C 644.083 190.584, 643.468 190.674, 641.571 192.571 C 640.143 194, 640 193.992, 640 192.488 C 640 191.578, 639.438 191.023, 638.750 191.254 C 638.063 191.486, 636.937 190.961, 636.249 190.088 C 635.127 188.663, 634.802 188.732, 633.085 190.756 C 631.743 192.337, 631.004 192.636, 630.613 191.756 C 630.306 191.065, 630.135 192.081, 630.232 194.014 C 630.330 195.947, 629.981 198.197, 629.458 199.014 C 628.868 199.937, 628.450 266.631, 628.357 375 C 628.247 502.423, 627.887 552.198, 627.021 559.500 C 623.883 585.960, 617.075 602.541, 603.711 616.272 C 593.176 627.095, 580.272 634.647, 564.826 639.029 C 552.278 642.589, 525.642 643.090, 368 642.732 L 220.500 642.397 210.500 640.129 C 192.491 636.045, 180.703 629.775, 168.964 618.036 C 153.195 602.266, 146.304 585.462, 144.035 557.241 C 143.503 550.632, 143.001 470.424, 142.887 373.742 C 142.774 279.275, 142.566 202.101, 142.423 202.244 C 142.280 202.387, 141.961 206.553, 141.713 211.502 C 141.297 219.834, 141.101 220.524, 139.071 220.828 C 137.865 221.008, 136.633 221.793, 136.334 222.572 C 136.035 223.351, 135.275 223.680, 134.645 223.302 C 133.812 222.803, 133.790 223.009, 134.564 224.058 C 135.383 225.167, 134.866 226.307, 132.322 229 C 130.193 231.254, 129.013 231.953, 129.008 230.964 C 129.003 230.098, 128.128 229.429, 127 229.429 C 124.459 229.429, 124.490 229.754, 127.250 232.056 C 128.908 233.440, 129.098 233.942, 127.972 233.967 C 125.801 234.014, 123.397 237.159, 123.831 239.383 C 124.138 240.960, 123.775 241.160, 121.599 240.614 C 120.074 240.231, 119 240.383, 119 240.981 C 119 241.541, 119.675 242, 120.500 242 C 121.325 242, 122 242.675, 122 243.500 C 122 245.621, 119.702 245.362, 118.039 243.054 C 116.317 240.665, 114.616 241.414, 115.979 243.961 C 116.726 245.357, 116.572 245.950, 115.339 246.424 C 114.445 246.767, 113.478 246.811, 113.190 246.524 C 112.902 246.236, 113.187 246, 113.824 246 C 114.514 246, 114.290 245.194, 113.268 244 C 111.214 241.601, 110 241.437, 110 243.559 C 110 244.416, 110.357 244.898, 110.792 244.628 C 111.228 244.359, 111.654 245.055, 111.738 246.175 C 111.880 248.064, 111.762 248.095, 110.117 246.606 C 107.798 244.508, 105.352 244.566, 104.080 246.750 C 103.519 247.713, 103.047 248.028, 103.030 247.450 C 103.014 246.873, 103.431 245.969, 103.958 245.442 C 104.546 244.854, 104.562 243.910, 104 243 C 103.266 241.813, 102.834 241.766, 101.832 242.768 C 100.830 243.770, 100.315 243.569, 99.249 241.760 C 97.950 239.557, 97.931 239.554, 98.499 241.666 C 98.819 242.857, 98.613 244.121, 98.041 244.475 C 97.468 244.829, 97 244.615, 97 244 C 97 243.385, 96.555 243.157, 96.011 243.493 C 95.464 243.831, 95.266 243.470, 95.568 242.683 C 96.383 240.559, 92.227 239.789, 91.028 241.843 C 90.496 242.754, 90.047 242.964, 90.030 242.309 C 90.014 241.654, 90.450 240.840, 91 240.500 C 92.441 239.610, 92.234 237.754, 90.750 238.260 C 90.063 238.495, 88.825 237.939, 88 237.024 C 87.175 236.109, 85.708 235.067, 84.741 234.708 C 83.773 234.349, 83.098 233.638, 83.241 233.128 C 83.383 232.618, 83.162 232.155, 82.750 232.100 C 80.183 231.758, 79.902 232.235, 81.580 234.088 L 83.470 236.177 80.241 234.338 C 78.466 233.327, 77.010 231.938, 77.006 231.250 C 76.999 229.747, 75.368 229.595, 74.490 231.016 C 73.597 232.462, 71.757 231.075, 72.388 229.431 C 72.677 228.679, 72.413 227.755, 71.802 227.378 C 71.129 226.962, 70.972 227.146, 71.405 227.845 C 71.797 228.480, 71.615 229, 71 229 C 70.385 229, 70.196 229.508, 70.580 230.130 C 70.981 230.778, 70.761 231.087, 70.064 230.855 C 69.396 230.632, 68.860 230.011, 68.872 229.475 C 68.884 228.939, 67.792 227.923, 66.447 227.218 C 65.101 226.513, 64 225.275, 64 224.468 C 64 223.661, 63.550 223, 63 223 C 61.195 223, 61.952 224.817, 64.635 226.927 C 66.542 228.428, 66.821 229, 65.643 229 C 64.749 229, 63.455 228.100, 62.768 227 C 61.364 224.753, 59 224.313, 59 226.300 C 59 227.015, 59.562 228.198, 60.250 228.930 C 60.937 229.661, 60.339 229.525, 58.920 228.626 C 57.501 227.728, 55.926 227.325, 55.420 227.730 C 54.914 228.135, 55.027 227.857, 55.672 227.111 C 56.316 226.366, 56.621 225.177, 56.350 224.468 C 56.078 223.760, 56.765 222.892, 57.877 222.539 C 59.052 222.166, 59.678 221.323, 59.372 220.526 C 58.961 219.455, 58.413 219.587, 56.872 221.128 C 55.786 222.214, 54.499 224.092, 54.012 225.301 C 53.320 227.020, 53.113 227.118, 53.063 225.750 C 53.029 224.787, 52.325 224, 51.500 224 C 50.675 224, 50 223.356, 50 222.570 C 50 221.783, 48.987 220.995, 47.750 220.820 C 46.135 220.590, 45.410 219.719, 45.182 217.733 C 44.988 216.044, 44.439 215.228, 43.774 215.639 C 42.701 216.303, 42.858 215.138, 44.467 210.500 C 44.991 208.988, 44.577 209.178, 42.772 211.275 C 39.951 214.555, 38.859 213.967, 39.717 209.632 C 40.277 206.805, 40.176 206.633, 38.681 207.862 C 37.677 208.688, 36.331 208.920, 35.263 208.453 C 34.293 208.029, 33.141 207.761, 32.703 207.857 C 32.264 207.953, 31.980 207.462, 32.071 206.766 C 32.401 204.248, 31.978 203.005, 30.875 203.250 C 30.256 203.387, 29.544 202.938, 29.292 202.250 C 29.018 201.503, 29.672 201, 30.917 201 C 32.137 201, 33 201.646, 33 202.559 C 33 203.416, 33.412 203.864, 33.915 203.553 C 34.418 203.242, 35.031 203.553, 35.278 204.244 C 35.524 204.935, 35.994 205.256, 36.321 204.958 C 36.649 204.661, 35.642 202.924, 34.085 201.099 C 32.305 199.014, 30.998 198.194, 30.568 198.891 C 29.610 200.440, 28.319 200.273, 27.643 198.512 C 27.329 197.694, 27.562 197.131, 28.161 197.262 C 28.760 197.393, 29.385 196.926, 29.550 196.225 C 29.715 195.524, 29.643 195.346, 29.390 195.830 C 29.137 196.313, 27.754 196.484, 26.316 196.210 C 24.754 195.911, 23.946 196.103, 24.307 196.688 C 24.640 197.226, 24.353 197.667, 23.670 197.667 C 22.987 197.667, 22.429 196.875, 22.429 195.907 C 22.429 194.939, 22.751 194.346, 23.145 194.590 C 23.539 194.833, 24.187 194.506, 24.585 193.862 C 25.021 193.157, 24.877 192.958, 24.224 193.362 C 23.627 193.731, 22.842 193.553, 22.480 192.968 C 22.016 192.217, 21.437 192.222, 20.517 192.986 C 19.556 193.784, 18.789 193.646, 17.606 192.463 C 15.992 190.850, 15.507 191.505, 15.922 194.734 C 16.009 195.415, 15.445 195.724, 14.663 195.424 C 12.278 194.509, 14.984 190.017, 17.925 190.008 C 20.307 190, 20.316 189.968, 18.429 188.176 C 16.569 186.410, 16.477 186.415, 15.504 188.334 C 14.323 190.664, 9.996 191.597, 8.837 189.771 C 7.658 187.913, 7.816 187.333, 9.500 187.333 C 10.325 187.333, 11.014 187.821, 11.030 188.417 C 11.047 189.012, 11.525 188.703, 12.092 187.729 C 12.659 186.755, 13.545 186.219, 14.061 186.538 C 14.578 186.857, 15 186.689, 15 186.165 C 15 185.641, 13.875 185.276, 12.501 185.356 C 11.126 185.435, 10.001 185.742, 10.001 186.037 C 10 186.333, 9.028 186.648, 7.840 186.737 C 6.652 186.827, 5.352 187.430, 4.952 188.078 C 4.038 189.557, 2 188.386, 2 186.382 C 2 185.557, 1.557 185.156, 1.016 185.490 C 0.375 185.886, 0.024 287.432, 0.008 477.050 L -0.016 768.003 384.242 767.751 L 768.500 767.500 768.500 476 C 768.500 163.657, 768.414 147.204, 766.774 145.228 C 765.926 144.206, 765.306 144.306, 763.685 145.725 C 762.569 146.701, 761.911 147.050, 762.223 146.500 C 762.535 145.950, 762.162 144.920, 761.395 144.211 C 760.628 143.501, 759.948 143.276, 759.885 143.711 M 738.441 156.574 C 737.374 157.440, 737.024 157.887, 737.665 157.568 C 738.305 157.249, 739.036 157.553, 739.290 158.244 C 739.658 159.249, 740.015 159.250, 741.075 158.250 C 742.103 157.280, 742.118 157, 741.141 157 C 740.449 157, 740.160 156.550, 740.500 156 C 741.387 154.565, 740.673 154.765, 738.441 156.574 M 614.564 164.293 C 614.940 165.279, 615.499 165.834, 615.807 165.526 C 616.115 165.219, 615.808 164.412, 615.124 163.733 C 614.136 162.753, 614.022 162.868, 614.564 164.293 M 728 163.848 C 728 164.353, 728.788 164.993, 729.750 165.270 C 730.712 165.547, 732.288 166.097, 733.250 166.494 C 734.516 167.015, 735 166.740, 735 165.500 C 735 164.352, 734.481 163.985, 733.428 164.389 C 732.563 164.721, 730.988 164.529, 729.928 163.961 C 728.839 163.378, 728 163.329, 728 163.848 M 724 170 C 724 170.550, 724.477 171, 725.059 171 C 725.641 171, 725.840 170.550, 725.500 170 C 725.160 169.450, 724.684 169, 724.441 169 C 724.198 169, 724 169.450, 724 170 M 2 178.167 C 2 178.625, 2.423 179, 2.941 179 C 3.459 179, 4.114 178.625, 4.397 178.167 C 4.680 177.708, 4.257 177.333, 3.456 177.333 C 2.655 177.333, 2 177.708, 2 178.167 M 694.603 178.833 C 694.320 179.292, 694.723 179.667, 695.500 179.667 C 696.277 179.667, 696.680 179.292, 696.397 178.833 C 696.114 178.375, 695.710 178, 695.500 178 C 695.290 178, 694.886 178.375, 694.603 178.833 M 690.733 181.124 C 691.412 181.808, 692.219 182.115, 692.526 181.807 C 692.834 181.499, 692.279 180.940, 691.293 180.564 C 689.868 180.022, 689.753 180.136, 690.733 181.124 M 623 181.718 C 623 182.358, 623.450 183.160, 624 183.500 C 624.550 183.840, 625.052 185.104, 625.116 186.309 C 625.204 187.972, 625.341 188.083, 625.686 186.769 C 625.935 185.816, 625.433 184.029, 624.570 182.796 C 623.706 181.563, 623 181.079, 623 181.718 M 3 183 C 3 183.550, 3.423 184, 3.941 184 C 4.459 184, 5.160 183.550, 5.500 183 C 5.840 182.450, 5.416 182, 4.559 182 C 3.702 182, 3 182.450, 3 183 M 629 184.500 C 628.282 185.365, 628.185 186, 628.771 186 C 629.329 186, 630.045 185.325, 630.362 184.500 C 630.678 183.675, 630.781 183, 630.591 183 C 630.401 183, 629.685 183.675, 629 184.500 M 695.459 187.067 C 695.096 187.653, 695.014 188.348, 695.276 188.610 C 695.538 188.872, 696.019 188.392, 696.345 187.543 C 697.021 185.781, 696.445 185.471, 695.459 187.067 M 636.733 188.124 C 637.412 188.808, 638.219 189.115, 638.526 188.807 C 638.834 188.499, 638.279 187.940, 637.293 187.564 C 635.868 187.022, 635.753 187.136, 636.733 188.124 M 0 189.885 C 0 191.323, 0.461 191.760, 1.542 191.345 C 3.249 190.690, 3.039 188.846, 1.188 188.229 C 0.528 188.009, 0 188.746, 0 189.885 M 626 191 C 626 192.100, 626.173 193, 626.383 193 C 626.594 193, 627.002 192.100, 627.290 191 C 627.577 189.900, 627.405 189, 626.906 189 C 626.408 189, 626 189.900, 626 191 M 5.564 192.293 C 5.940 193.279, 6.499 193.834, 6.807 193.526 C 7.115 193.219, 6.808 192.412, 6.124 191.733 C 5.136 190.753, 5.022 190.868, 5.564 192.293 M 569.982 194.042 C 567.513 200.003, 561.386 206.537, 554.185 210.888 C 543.417 217.394, 533.925 219.647, 513.603 220.519 C 505.571 220.864, 501.521 220.463, 492.103 218.391 C 478.916 215.489, 462.056 214.958, 456 217.254 C 443.980 221.810, 436.789 227.103, 421.224 242.850 C 413.922 250.237, 407.664 255.997, 407.317 255.650 C 406.970 255.304, 407.882 253.912, 409.343 252.558 C 410.804 251.203, 412 249.698, 412 249.213 C 412 248.728, 413.238 247.193, 414.750 245.803 C 416.262 244.413, 419.525 240.861, 422 237.909 C 424.475 234.958, 427.492 231.521, 428.705 230.271 C 432.490 226.371, 429.545 227.792, 425.121 232 C 421.224 235.707, 419 236.924, 419 235.351 C 419 234.263, 425.608 228.209, 429.158 226.045 C 432.973 223.719, 434.462 223.437, 433.354 225.250 C 432.933 225.938, 434.066 225.262, 435.871 223.750 C 437.676 222.238, 439.688 221, 440.342 221 C 440.995 221, 443.098 220.160, 445.015 219.133 C 446.932 218.107, 450.075 216.948, 452 216.559 C 453.925 216.169, 457.075 215.114, 459 214.212 L 462.500 212.574 458.234 211.968 C 449.752 210.762, 437.143 213.546, 415 221.515 C 403.986 225.478, 397.908 229.857, 384.181 243.720 C 372.212 255.808, 369.825 257.313, 368.422 253.658 C 368.122 252.874, 369.656 250.486, 371.945 248.174 C 374.175 245.921, 376 243.633, 376 243.089 C 376 242.545, 376.596 241.740, 377.325 241.300 C 378.054 240.860, 378.940 239.713, 379.294 238.750 C 379.648 237.787, 380.626 237, 381.469 237 C 382.311 237, 383 236.363, 383 235.583 C 383 234.804, 383.337 234.017, 383.750 233.833 C 384.163 233.650, 385.501 232.071, 386.725 230.325 C 388.275 228.112, 388.578 227.025, 387.725 226.737 C 386.789 226.423, 386.824 225.933, 387.872 224.663 C 388.627 223.748, 388.976 223, 388.647 223 C 388.318 223, 388.498 221.819, 389.047 220.376 C 389.849 218.267, 389.702 217.503, 388.299 216.476 C 386.872 215.433, 386.187 215.456, 384.554 216.600 C 383.454 217.370, 381.405 218, 380 218 C 378.595 218, 376.481 218.675, 375.304 219.500 C 374.126 220.325, 372.563 220.785, 371.831 220.522 C 368.273 219.245, 362.908 219.342, 362.149 220.698 C 361.458 221.934, 361.190 221.934, 360.168 220.702 C 359.418 219.799, 357.698 219.419, 355.471 219.665 C 352.981 219.939, 351.786 219.607, 351.372 218.526 C 350.465 216.164, 347.661 216.597, 348.290 219.001 C 348.614 220.238, 348.415 220.757, 347.771 220.359 C 346.232 219.407, 337 219.274, 337 220.203 C 337 221.660, 333.947 221.026, 333.340 219.443 C 333.011 218.586, 332.125 218.122, 331.371 218.411 C 330.617 218.700, 330 218.501, 330 217.969 C 330 217.436, 330.675 217, 331.500 217 C 332.325 217, 333 216.550, 333 216 C 333 215.450, 331.875 215, 330.500 215 C 329.125 215, 328 215.450, 328 216 C 328 217.508, 322.612 217.200, 319.364 215.506 L 316.500 214.012 320.417 214.006 C 322.571 214.003, 324.030 213.697, 323.659 213.326 C 322.510 212.176, 317.616 212.337, 315.150 213.607 C 313.858 214.272, 309.583 214.856, 305.650 214.905 C 296.684 215.015, 288.024 216.419, 284.241 218.375 C 282.641 219.203, 279.009 221.716, 276.170 223.960 C 272.130 227.154, 270.464 227.904, 268.504 227.412 C 267.127 227.066, 266 227.206, 266 227.723 C 266 228.239, 264.871 229.266, 263.492 230.004 C 259.745 232.010, 258.982 236.702, 259.255 256.088 C 259.437 268.994, 259.137 274.529, 258.098 277.475 C 255.208 285.670, 258.243 335.961, 262.535 351 C 264.474 357.795, 265.480 371.368, 267.468 417.500 C 269.048 454.181, 269.897 460.967, 273.876 468.749 C 276.492 473.864, 282.538 480.550, 292.809 489.689 C 297.554 493.911, 301.539 498.062, 301.664 498.914 C 301.789 499.766, 302.417 500.639, 303.059 500.853 C 303.701 501.067, 304.963 502.140, 305.864 503.238 C 306.764 504.335, 309.618 507.441, 312.206 510.139 C 314.795 512.836, 317.704 516.384, 318.672 518.022 C 319.640 519.660, 320.739 521, 321.116 521 C 322.332 521, 328.936 528.094, 330.237 530.798 C 331.629 533.690, 337.033 538.094, 350.175 547.043 C 365.589 557.540, 377.964 562.865, 390.946 564.587 C 396.851 565.371, 410.391 563.341, 414.031 561.127 C 415.569 560.192, 425.079 551.504, 435.164 541.820 C 445.249 532.136, 460.475 518.450, 469 511.407 C 477.525 504.364, 485.322 497.679, 486.326 496.551 C 487.330 495.423, 489.478 493.037, 491.100 491.250 C 492.722 489.462, 493.734 488, 493.350 488 C 492.966 488, 493.547 486.988, 494.641 485.750 C 500.472 479.156, 502.914 472.885, 502.212 466.307 C 501.930 463.663, 501.731 460.600, 501.770 459.500 C 502.601 436.185, 504.394 409.268, 505.167 408.500 C 505.840 407.831, 506.106 408.162, 505.971 409.500 C 505.538 413.795, 506.047 418, 507 418 C 507.550 418, 508.008 417.438, 508.017 416.750 C 508.045 414.716, 512.729 410.734, 513.331 412.231 C 513.612 412.929, 513.878 412.514, 513.921 411.309 C 513.996 409.216, 516 406.844, 516 408.847 C 516 409.378, 516.900 409.577, 518 409.290 C 520.317 408.684, 520.357 408.536, 518.933 405.875 C 518.112 404.341, 518.170 403.936, 519.183 404.119 C 520.870 404.424, 526.980 400.817, 527.009 399.500 C 527.021 398.950, 527.467 399.175, 528 400 C 528.839 401.298, 528.971 401.277, 528.985 399.839 C 528.999 398.242, 530.288 396.628, 539.824 386.259 C 542.817 383.004, 544.022 380.898, 543.739 379.415 C 543.426 377.777, 543.738 377.380, 545.068 377.728 C 546.198 378.024, 547.040 377.450, 547.471 376.091 C 547.836 374.941, 548.892 373.993, 549.817 373.985 C 551.129 373.973, 551.204 373.782, 550.158 373.119 C 549.137 372.472, 549.558 371.739, 551.912 370.063 C 556.399 366.868, 555.852 361.532, 556.622 416 C 557.287 463.034, 556.719 470.282, 551.510 481.231 C 546.901 490.919, 543.847 493.120, 491.009 524.836 C 473.129 535.569, 445.953 552.645, 430.619 562.782 C 415.284 572.920, 400.493 582.342, 397.749 583.720 C 395.006 585.098, 389.327 586.765, 385.130 587.425 C 380.934 588.084, 378.175 588.899, 379 589.236 C 380.333 589.780, 380.333 589.966, 379 590.908 C 378.175 591.491, 377.050 592.127, 376.500 592.321 C 375.924 592.525, 376.136 593.459, 377 594.525 C 378.359 596.201, 378.336 596.313, 376.750 595.719 C 375.788 595.358, 375 595.499, 375 596.031 C 375 596.564, 375.900 597, 377 597 C 378.100 597, 379 597.450, 379 598 C 379 598.550, 378.550 599, 378 599 C 377.450 599, 377 599.450, 377 600 C 377 600.550, 377.675 601, 378.500 601 C 379.325 601, 380 601.436, 380 601.969 C 380 602.501, 379.212 602.660, 378.250 602.321 C 376.949 601.864, 376.776 602.007, 377.577 602.879 C 379.327 604.787, 388.489 605.382, 394.966 604.007 C 398.271 603.306, 407.063 599.665, 414.618 595.869 C 422.138 592.091, 428.659 589, 429.110 589 C 429.561 589, 430.408 589.894, 430.992 590.986 C 431.968 592.809, 431.848 592.893, 429.528 592.010 C 428.137 591.482, 427 591.433, 427 591.902 C 427 593.195, 429.593 595.074, 430.342 594.325 C 430.704 593.963, 431 594.189, 431 594.827 C 431 595.465, 432.161 594.977, 433.580 593.743 C 434.999 592.510, 436.574 591.444, 437.080 591.375 C 437.586 591.306, 438.788 591.187, 439.750 591.110 C 441.251 590.989, 441.287 590.832, 440 590 C 438.809 589.230, 439.014 589.021, 441 588.984 C 444.156 588.924, 447.435 586.514, 446.475 584.959 C 445.966 584.135, 446.384 583.987, 447.880 584.462 C 449.345 584.927, 450.197 584.650, 450.610 583.575 C 450.940 582.715, 451.689 582.308, 452.275 582.670 C 452.908 583.061, 453.117 582.748, 452.792 581.899 C 452.361 580.777, 453.077 580.550, 456.131 580.841 C 459.373 581.150, 459.916 580.945, 459.402 579.606 C 458.998 578.551, 459.325 578, 460.358 578 C 461.222 578, 462.418 577.087, 463.015 575.972 C 463.612 574.857, 464.528 574.208, 465.050 574.531 C 465.573 574.854, 466 574.473, 466 573.684 C 466 572.801, 467.014 572.250, 468.640 572.250 C 470.092 572.250, 471.695 571.509, 472.202 570.604 C 472.708 569.699, 473.596 569.250, 474.173 569.607 C 474.751 569.964, 475.511 569.859, 475.862 569.372 C 477.156 567.581, 483.910 563, 485.259 563 C 486.025 563, 487.708 561.875, 489 560.500 C 490.292 559.125, 491.890 558, 492.552 558 C 493.214 558, 494.324 557.314, 495.020 556.476 C 495.716 555.638, 496.517 555.184, 496.800 555.467 C 497.712 556.378, 500.002 553.815, 499.329 552.637 C 498.972 552.012, 499.036 551.822, 499.471 552.215 C 500.635 553.265, 504 551.178, 504 549.406 C 504 548.568, 504.450 548.160, 505 548.500 C 505.550 548.840, 506 548.517, 506 547.782 C 506 546.234, 511.654 541.007, 513.353 540.985 C 513.984 540.976, 513.825 540.533, 513 540 C 511.793 539.220, 511.951 539.028, 513.809 539.015 C 515.102 539.007, 515.844 538.557, 515.496 537.993 C 515.153 537.439, 515.689 536.684, 516.687 536.316 C 517.684 535.947, 518.725 535.373, 519 535.039 C 519.275 534.705, 522.650 532.214, 526.500 529.503 C 552.555 511.159, 562.409 499.847, 569.954 479.623 L 572.751 472.127 573.359 370.994 C 573.694 315.371, 574.191 269.500, 574.464 269.059 C 575.636 267.162, 578 247.292, 578 239.332 L 578 230.651 575.526 232.975 C 572.149 236.149, 571.791 234.739, 572.871 222.500 C 573.835 211.564, 573.419 194.572, 572.131 192.270 C 571.513 191.166, 570.998 191.591, 569.982 194.042 M 0.493 481 C 0.493 639.125, 0.609 703.813, 0.750 624.750 C 0.891 545.688, 0.891 416.313, 0.750 337.250 C 0.609 258.188, 0.493 322.875, 0.493 481 M 640 196 C 640 196.550, 640.477 197, 641.059 197 C 641.641 197, 641.840 196.550, 641.500 196 C 641.160 195.450, 640.684 195, 640.441 195 C 640.198 195, 640 195.450, 640 196 M 649.500 196 C 649.840 196.550, 650.879 196.993, 651.809 196.985 C 653.266 196.971, 653.293 196.835, 652 196 C 650.042 194.734, 648.718 194.734, 649.500 196 M 674.500 197 C 674.840 197.550, 675.316 198, 675.559 198 C 675.802 198, 676 197.550, 676 197 C 676 196.450, 675.523 196, 674.941 196 C 674.359 196, 674.160 196.450, 674.500 197 M 670.357 198.500 C 671.182 199.325, 672.169 200, 672.551 200 C 672.933 200, 672.685 199.325, 672 198.500 C 671.315 197.675, 670.328 197, 669.806 197 C 669.284 197, 669.532 197.675, 670.357 198.500 M 23.333 200.500 C 23.333 201.220, 23.933 201.579, 24.667 201.298 C 25.400 201.016, 26 200.657, 26 200.500 C 26 200.343, 25.400 199.984, 24.667 199.702 C 23.933 199.421, 23.333 199.780, 23.333 200.500 M 37.500 202 C 37.840 202.550, 38.568 203, 39.118 203 C 39.668 203, 39.840 202.550, 39.500 202 C 39.160 201.450, 38.432 201, 37.882 201 C 37.332 201, 37.160 201.450, 37.500 202 M 25.813 205.683 C 26.534 205.972, 27.397 205.936, 27.729 205.604 C 28.061 205.272, 27.471 205.036, 26.417 205.079 C 25.252 205.127, 25.015 205.364, 25.813 205.683 M 41 206 C 41 206.550, 41.450 207, 42 207 C 42.550 207, 43 206.550, 43 206 C 43 205.450, 42.550 205, 42 205 C 41.450 205, 41 205.450, 41 206 M 47.011 213.487 C 46.332 214.305, 46.060 215.714, 46.407 216.618 C 46.958 218.054, 47.286 217.976, 48.998 216.002 C 50.848 213.869, 50.879 212, 49.063 212 C 48.613 212, 47.689 212.669, 47.011 213.487 M 52.733 213.124 C 53.412 213.808, 54.219 214.115, 54.526 213.807 C 54.834 213.499, 54.279 212.940, 53.293 212.564 C 51.868 212.022, 51.753 212.136, 52.733 213.124 M 138 215.882 C 138 216.432, 138.450 217.160, 139 217.500 C 139.550 217.840, 140 217.668, 140 217.118 C 140 216.568, 139.550 215.840, 139 215.500 C 138.450 215.160, 138 215.332, 138 215.882 M 37 217 C 37 217.550, 37.450 218, 38 218 C 38.550 218, 39 217.550, 39 217 C 39 216.450, 38.550 216, 38 216 C 37.450 216, 37 216.450, 37 217 M 54 218.560 C 54 219.234, 53.261 220.070, 52.357 220.417 C 51.453 220.763, 50.992 221.326, 51.333 221.666 C 51.673 222.006, 52.618 221.732, 53.432 221.056 C 54.246 220.381, 55.382 220.118, 55.956 220.473 C 56.541 220.834, 57 220.286, 57 219.226 C 57 218.185, 56.325 217.333, 55.500 217.333 C 54.675 217.333, 54 217.885, 54 218.560 M 65.030 221.316 C 64.976 222.775, 67.045 226, 68.035 226 C 68.566 226, 69 225.298, 69 224.441 C 69 223.584, 68.578 223.143, 68.061 223.462 C 67.545 223.781, 66.659 223.245, 66.092 222.271 C 65.525 221.297, 65.047 220.867, 65.030 221.316 M 338 221.941 C 338 223.617, 339.774 224.033, 340.364 222.494 C 340.712 221.587, 340.361 221, 339.469 221 C 338.661 221, 338 221.423, 338 221.941 M 410.727 231 C 409.329 232.100, 407.843 233, 407.426 233 C 405.186 233, 387.448 251.500, 383.575 257.877 C 379.793 264.103, 379.175 267.070, 381.295 268.830 C 382.293 269.658, 383.365 268.595, 385.968 264.202 C 391.142 255.467, 397.549 247.360, 406.872 237.750 C 414.774 229.606, 416.629 226.358, 410.727 231 M 90 233.941 C 90 234.459, 90.445 235.157, 90.989 235.493 C 91.555 235.843, 91.723 235.442, 91.382 234.552 C 90.717 232.820, 90 232.503, 90 233.941 M 75.500 236 C 75.840 236.550, 76.541 237, 77.059 237 C 77.577 237, 78 236.550, 78 236 C 78 235.450, 77.298 235, 76.441 235 C 75.584 235, 75.160 235.450, 75.500 236 M 307.127 256.077 C 303.706 257.446, 297.500 262.368, 289.676 269.916 C 278.477 280.720, 278.866 279.762, 278.136 298.314 C 277.786 307.216, 277.500 330.700, 277.500 350.500 C 277.500 390.599, 277.980 395.033, 283.561 406.500 C 288.504 416.655, 293.454 421.476, 308 430.308 C 320.870 438.121, 322.051 439.872, 327.519 459.250 C 328.412 462.413, 329.496 465, 329.929 465 C 330.361 465, 330.999 462.283, 331.346 458.962 C 332.700 446.009, 339.996 436.239, 349.903 434.114 C 352.760 433.501, 355.954 433, 357 433 C 358.045 433, 359.310 432.268, 359.811 431.373 C 360.648 429.877, 361.154 429.888, 366.111 431.510 C 369.075 432.480, 373.170 434.112, 375.210 435.137 C 379.729 437.406, 384.635 437.421, 388.056 435.177 C 389.462 434.255, 392.787 432.150, 395.445 430.500 C 398.103 428.850, 401.517 426.488, 403.033 425.250 C 404.549 424.012, 406.736 423, 407.894 423 C 409.333 423, 410 422.367, 410 421 C 410 419.900, 410.430 419, 410.955 419 C 411.925 419, 412.770 422.692, 413.240 428.978 C 413.485 432.255, 413.756 432.499, 417.923 433.205 C 429.130 435.104, 436.281 441.698, 439.046 452.683 L 440.722 459.340 443.955 449.635 C 445.733 444.297, 448.216 438.708, 449.473 437.215 C 450.730 435.722, 456.103 431.812, 461.415 428.526 C 470.728 422.765, 476.537 418, 474.246 418 C 473.639 418, 472.449 418.694, 471.601 419.542 C 470.211 420.932, 469.825 420.931, 467.699 419.539 C 466.402 418.689, 464.941 418.332, 464.453 418.746 C 463.965 419.161, 464.226 418.626, 465.033 417.558 C 465.840 416.490, 465.969 415.935, 465.319 416.324 C 462.912 417.768, 463.029 415.027, 465.442 413.446 C 468.481 411.455, 472.698 402.870, 473.579 396.881 C 473.933 394.472, 475.236 390.915, 476.475 388.978 C 483.239 378.399, 486.317 367.638, 483.258 365.268 C 481.843 364.172, 481.824 363.567, 483.084 359.768 C 485.598 352.191, 484.819 346.373, 480.237 338.500 C 477.746 334.221, 475.685 329.039, 474.935 325.169 C 473.485 317.688, 474.103 303.487, 476.575 287.500 C 477.511 281.450, 478.327 275.678, 478.388 274.674 C 478.522 272.492, 473.885 270.667, 463.948 268.991 C 457.932 267.977, 456.475 268.082, 450.355 269.972 C 443.614 272.053, 425.285 281.242, 413.500 288.447 C 409.005 291.196, 406.793 291.979, 404.679 291.569 C 401.781 291.007, 395.266 294.774, 387.044 301.767 L 383.589 304.707 378.445 300.603 C 375.616 298.346, 367.549 291.397, 360.519 285.159 C 332.313 260.136, 317.349 251.985, 307.127 256.077 M 384.079 279.583 C 384.127 280.748, 384.364 280.985, 384.683 280.188 C 384.972 279.466, 384.936 278.603, 384.604 278.271 C 384.272 277.939, 384.036 278.529, 384.079 279.583 M 384.079 298.583 C 384.127 299.748, 384.364 299.985, 384.683 299.188 C 384.972 298.466, 384.936 297.603, 384.604 297.271 C 384.272 296.939, 384.036 297.529, 384.079 298.583 M 459.500 333.411 C 451.073 336.117, 415.620 349.651, 411.750 351.639 C 409.957 352.560, 409 353.851, 409 355.351 C 409 358.260, 405.587 361.406, 400.750 362.954 C 398.688 363.615, 397 364.570, 397 365.078 C 397 365.585, 395.875 366, 394.500 366 C 391.168 366, 391.345 367.182, 395 369.341 C 398.918 371.655, 398.784 372.449, 394.250 373.806 L 390.500 374.929 390.837 384.714 C 391.022 390.096, 391.584 394.928, 392.087 395.450 C 392.645 396.031, 393 395.158, 393 393.200 C 393 391.440, 393.450 390, 394 390 C 394.550 390, 395 390.400, 395 390.889 C 395 391.377, 396.688 392.093, 398.750 392.478 C 400.813 392.864, 403.019 393.608, 403.654 394.133 C 404.289 394.657, 406.021 394.782, 407.503 394.410 C 409.880 393.813, 410.126 393.378, 409.591 390.705 C 409.258 389.040, 408.314 386.331, 407.493 384.685 C 403.939 377.561, 407.122 371.179, 415.552 368.527 C 421.845 366.548, 423.462 367.062, 419.859 369.896 C 417.802 371.514, 417.443 372.592, 417.602 376.660 C 417.792 381.499, 417.793 381.500, 421.752 382.048 C 426.493 382.704, 428 382.311, 428 380.417 C 428 379.581, 429.002 379, 430.441 379 C 431.784 379, 433.188 378.505, 433.562 377.899 C 433.936 377.294, 435.464 377.043, 436.956 377.341 C 438.449 377.640, 440.780 377.308, 442.136 376.604 C 444.917 375.162, 447.340 375.309, 450.737 377.127 C 453.560 378.638, 454.778 377.649, 458.288 371 C 460.479 366.850, 460.927 366.527, 464.053 366.849 C 465.918 367.040, 468.344 367.828, 469.444 368.599 C 473.535 371.464, 478.469 369.258, 474.750 366.226 C 471.332 363.439, 465.372 362.887, 448.500 363.794 C 439.150 364.296, 431.104 364.355, 430.620 363.924 C 430.137 363.493, 432.387 361.471, 435.620 359.430 C 451.050 349.691, 455.653 346.562, 457.500 344.558 C 458.600 343.365, 462.875 340.882, 467 339.042 C 471.125 337.202, 474.718 335.509, 474.985 335.280 C 475.888 334.505, 470.514 331.044, 468.500 331.104 C 467.400 331.136, 463.350 332.174, 459.500 333.411 M 302.441 333.429 C 300.524 334.839, 300.525 334.867, 302.500 335.613 C 306.278 337.042, 313.723 342.003, 317.609 345.681 C 319.749 347.707, 325.937 352.247, 331.360 355.772 C 337.081 359.490, 340.848 362.552, 340.334 363.066 C 339.848 363.552, 331.697 364.074, 322.223 364.225 C 311.637 364.394, 304.974 364.886, 304.939 365.500 C 304.908 366.050, 305.896 366.739, 307.136 367.032 C 308.642 367.388, 309.671 368.649, 310.237 370.836 C 310.927 373.497, 311.455 373.990, 313.066 373.479 C 314.155 373.133, 320.773 373.607, 327.773 374.531 C 345.097 376.820, 345.143 376.831, 345.722 379.046 C 346.492 381.989, 349.879 381.480, 351.025 378.250 C 351.562 376.738, 352.403 374.796, 352.894 373.935 C 353.435 372.985, 353.384 371.651, 352.765 370.544 C 351.876 368.956, 352.053 368.792, 354.122 369.285 C 360.128 370.716, 367.788 371.152, 368.438 370.100 C 368.812 369.495, 368.725 369, 368.244 369 C 366.784 369, 363.792 361.796, 363.127 356.677 L 362.500 351.854 352.500 348.553 C 347 346.738, 336.425 342.900, 329 340.024 C 314.734 334.498, 307.428 332, 305.532 332 C 304.900 332, 303.509 332.643, 302.441 333.429 M 511.667 345.667 C 511.300 346.033, 511 347.395, 511 348.692 C 511 350.992, 511.076 351.012, 514 349.500 C 517.600 347.639, 517.991 345, 514.667 345 C 513.383 345, 512.033 345.300, 511.667 345.667 M 506.686 384.700 C 506.407 385.150, 505.892 389.339, 505.541 394.009 C 504.942 401.967, 505 402.343, 506.460 400 C 508.468 396.778, 510.967 391.267, 512.054 387.665 C 512.809 385.164, 512.725 384.983, 511.346 386.128 C 510.043 387.209, 509.568 387.130, 508.488 385.652 C 507.775 384.678, 506.964 384.249, 506.686 384.700 M 509.500 409 C 509.160 409.550, 509.332 410, 509.882 410 C 510.432 410, 511.160 409.550, 511.500 409 C 511.840 408.450, 511.668 408, 511.118 408 C 510.568 408, 509.840 408.450, 509.500 409 M 404 414.559 C 404 415.416, 404.457 415.835, 405.016 415.490 C 405.575 415.144, 405.774 414.443, 405.457 413.931 C 404.600 412.544, 404 412.802, 404 414.559 M 477 416 C 476.099 416.582, 475.975 416.975, 476.691 416.985 C 477.346 416.993, 478.160 416.550, 478.500 416 C 479.267 414.758, 478.921 414.758, 477 416 M 356.087 456.080 C 348.710 456.582, 342.469 457.198, 342.217 457.450 C 341.965 457.702, 341.370 459.991, 340.894 462.538 C 339.288 471.136, 342.932 480.632, 351.340 489.753 C 358.716 497.755, 359.807 498.219, 367.466 496.614 C 371.122 495.848, 374.323 495.010, 374.581 494.753 C 374.838 494.495, 375.328 491.291, 375.670 487.632 C 376.191 482.052, 376 480.657, 374.485 478.983 C 373.492 477.886, 372.875 476.791, 373.115 476.551 C 373.793 475.874, 404.932 475.599, 405.598 476.264 C 406.364 477.030, 399.306 478.987, 395.750 478.994 C 393.163 479, 393 479.263, 393 483.453 C 393 490.608, 394.493 492.710, 400.898 494.574 C 412.314 497.896, 412.259 497.906, 417.325 491.452 C 423.711 483.315, 426.878 477.082, 428.455 469.543 C 429.873 462.768, 429.577 458.983, 427.633 459.024 C 427.010 459.037, 423.800 460.176, 420.500 461.555 C 412.536 464.883, 400.173 466.349, 385.500 465.706 C 372.774 465.148, 356 462.397, 356 460.868 C 356 460.327, 359.373 460.266, 364.250 460.718 C 375.307 461.744, 389.372 461.675, 395.500 460.566 C 400.246 459.708, 400.347 459.625, 397.500 458.949 C 395.850 458.557, 392.625 458.183, 390.333 458.118 C 388.042 458.053, 386.017 457.568, 385.833 457.040 C 385.314 455.543, 370.844 455.076, 356.087 456.080 M 213 501 C 213 501.550, 213.477 502, 214.059 502 C 214.641 502, 214.840 501.550, 214.500 501 C 214.160 500.450, 213.684 500, 213.441 500 C 213.198 500, 213 500.450, 213 501 M 215.576 502.877 C 215.273 503.367, 216.978 505.508, 219.366 507.634 C 229.867 516.986, 241.125 526.321, 246.588 530.204 C 249.840 532.515, 252.650 534.765, 252.833 535.203 C 253.017 535.641, 253.692 536.005, 254.333 536.011 C 254.975 536.017, 257.026 537.592, 258.890 539.511 C 260.755 541.430, 262.738 543, 263.296 543 C 263.854 543, 265.748 544.096, 267.504 545.435 C 270.897 548.023, 279.458 552.998, 280.736 553.124 C 281.156 553.166, 281.388 553.605, 281.250 554.100 C 281.113 554.595, 281.520 555, 282.156 555 C 282.791 555, 284.786 556.125, 286.589 557.500 C 288.392 558.875, 290.163 560, 290.526 560 C 290.888 560, 292.321 560.894, 293.710 561.986 C 295.099 563.079, 296.632 563.727, 297.118 563.427 C 297.603 563.127, 298 563.290, 298 563.789 C 298 564.701, 303.384 567.289, 307.953 568.574 C 309.303 568.953, 317.401 573.029, 325.949 577.632 C 339.835 585.108, 344 586.942, 344 585.579 C 344 584.260, 313.705 564.883, 283.827 547.092 C 267.515 537.379, 262.037 533.591, 263.206 532.833 C 264.058 532.280, 263.647 532.080, 262 532.247 C 260.472 532.402, 259.593 532.028, 259.738 531.286 C 259.870 530.614, 259.351 530.312, 258.577 530.609 C 256.758 531.307, 248.837 526.073, 249.671 524.723 C 250.045 524.118, 249.819 523.994, 249.125 524.423 C 247.901 525.179, 235 518.210, 235 516.792 C 235 516.357, 234.277 516, 233.393 516 C 232.342 516, 231.995 515.456, 232.390 514.426 C 232.722 513.560, 232.353 512.210, 231.569 511.426 C 229.934 509.791, 228.581 509.512, 229.500 511 C 230.556 512.708, 227.323 512.096, 225.872 510.313 C 224.660 508.822, 224.721 508.708, 226.391 509.336 C 227.992 509.937, 228.090 509.813, 227.028 508.534 C 226.338 507.702, 225.355 507.281, 224.843 507.597 C 223.864 508.202, 220.369 506.226, 217.704 503.561 C 216.837 502.694, 215.879 502.386, 215.576 502.877 M 253.813 526.683 C 254.534 526.972, 255.397 526.936, 255.729 526.604 C 256.061 526.272, 255.471 526.036, 254.417 526.079 C 253.252 526.127, 253.015 526.364, 253.813 526.683 M 256.813 528.683 C 257.534 528.972, 258.397 528.936, 258.729 528.604 C 259.061 528.272, 258.471 528.036, 257.417 528.079 C 256.252 528.127, 256.015 528.364, 256.813 528.683" stroke="none" fill="black" fill-rule="evenodd"/>
	<path fill-opacity="0.536" d="M 297.734 219.020 C 290.940 220.744, 286.548 223.704, 278.971 231.667 C 271.695 239.315, 269.643 242.395, 266.520 250.367 C 265.219 253.687, 264.651 254.166, 262.502 253.756 L 260 253.277 260 262.429 C 260 267.522, 259.307 274.223, 258.436 277.540 C 257.079 282.714, 257.014 286.337, 257.949 305 C 259.078 327.535, 260.523 339.516, 263.918 354.500 C 265.039 359.450, 265.963 366.425, 265.971 370 C 265.979 373.575, 266.442 383.025, 266.999 391 C 267.557 398.975, 268.420 416.750, 268.917 430.500 C 270.081 462.688, 270.895 465.725, 281.293 476.672 C 285.241 480.827, 293.202 488.088, 298.985 492.806 C 304.768 497.523, 315.575 506.605, 323 512.987 C 330.425 519.369, 339.200 526.619, 342.500 529.099 C 362.504 544.129, 382.240 552.512, 391.422 549.879 C 393.108 549.396, 395.979 549, 397.802 549 C 400.027 549, 400.887 548.625, 400.414 547.862 C 399.909 547.043, 400.773 546.922, 403.489 547.432 C 406.692 548.033, 407.175 547.899, 406.661 546.558 C 406.185 545.319, 406.544 545.098, 408.311 545.542 C 410.365 546.057, 415.646 542.982, 414.566 541.898 C 414.348 541.679, 417.619 538.904, 421.835 535.731 C 426.051 532.558, 432.702 526.912, 436.616 523.183 C 445.758 514.474, 455.554 506.003, 460 502.961 C 461.925 501.643, 464.101 499.982, 464.837 499.268 C 465.572 498.554, 467.822 496.749, 469.837 495.258 C 487.602 482.107, 495.389 473.216, 499.079 461.867 C 500.739 456.760, 501.329 451.245, 502.059 434 C 503.042 410.806, 503.657 399.216, 504.447 389 C 504.724 385.425, 505.204 377.775, 505.514 372 C 505.842 365.889, 506.946 358.574, 508.155 354.500 C 510.823 345.511, 511.323 344.566, 513.607 344.182 C 517.664 343.502, 528.709 338.828, 532.766 336.075 C 536.708 333.400, 542.797 328.609, 546.841 325 C 550.894 321.382, 554.368 319, 555.590 319 C 557.255 319, 557.779 322.395, 558.524 338 C 558.852 344.875, 559.653 351.738, 560.304 353.250 C 561.501 356.030, 563 356.938, 563 354.883 C 563 354.259, 563.882 353.997, 565 354.290 C 566.499 354.682, 567 354.320, 567 352.847 C 567 351.616, 566.569 351.149, 565.845 351.595 C 565.124 352.041, 564.963 351.869, 565.415 351.138 C 566.441 349.477, 567.981 350.719, 568.105 353.309 C 568.176 354.803, 568.629 354.228, 569.528 351.500 L 570.846 347.500 570.923 350.750 C 570.965 352.538, 571.475 354, 572.056 354 C 572.782 354, 573.078 341.259, 573.003 313.250 C 572.903 275.766, 573.059 271.711, 574.947 262.653 C 576.210 256.597, 576.953 249.476, 576.878 244.153 L 576.756 235.500 575.179 243.500 C 574.312 247.900, 573.231 251.654, 572.777 251.842 C 572.322 252.029, 570.206 255.743, 568.074 260.093 C 562.725 271.005, 553.593 283.365, 547.011 288.601 C 542.374 292.290, 540.786 292.990, 537 293.017 C 534.525 293.035, 530.477 293.515, 528.005 294.085 C 525.533 294.654, 521.370 294.826, 518.755 294.466 L 514 293.812 514 289.835 C 514 285.414, 515.021 284.020, 519.643 282.131 C 524.195 280.270, 534.792 269.652, 540.537 261.195 C 547.748 250.581, 548.846 248.694, 548.927 246.770 C 548.967 245.818, 551.734 239.590, 555.076 232.929 C 558.418 226.269, 560.911 220.577, 560.616 220.282 C 560.320 219.987, 556.279 223.290, 551.634 227.623 C 542.226 236.399, 536.333 240.156, 535.101 238.163 C 534.509 237.206, 533.042 237.276, 528.421 238.484 C 519.957 240.696, 513.108 241.288, 508.500 240.207 L 504.500 239.268 508.294 237.602 C 511.815 236.056, 513.926 233.593, 512.743 232.409 C 511.073 230.740, 489.178 225.868, 480.965 225.338 C 472.694 224.806, 470.459 225.031, 464.097 227.039 C 454.872 229.950, 447.646 234.604, 437.235 244.341 C 429.309 251.753, 426.128 253.715, 427.397 250.407 C 427.733 249.531, 428.293 247.682, 428.640 246.299 L 429.271 243.784 425.105 246.142 C 420.649 248.663, 393.959 275.313, 388.914 282.278 C 386.101 286.161, 385.905 286.985, 386.191 293.727 C 386.361 297.723, 386.768 300.994, 387.095 300.996 C 387.422 300.998, 388.547 300.042, 389.595 298.871 C 390.643 297.700, 394.650 294.402, 398.500 291.542 C 402.350 288.683, 410.225 282.154, 416 277.034 C 427.687 266.673, 434.532 261.327, 440.500 257.899 C 443.800 256.004, 445.900 255.614, 452.500 255.672 C 463.358 255.767, 469.681 258.707, 481.949 269.361 C 484.570 271.638, 487.667 274.272, 488.830 275.217 C 490.839 276.847, 490.945 277.821, 490.949 294.724 C 490.951 304.509, 491.411 315.887, 491.971 320.007 C 493.954 334.601, 494.987 362.252, 493.979 373.746 C 491.256 404.776, 485.627 414.421, 461.510 429.388 C 455.806 432.928, 450.579 436.985, 449.326 438.844 C 448.120 440.635, 445.489 447.030, 443.481 453.056 C 441.473 459.083, 439.492 463.804, 439.079 463.549 C 438.666 463.294, 438.512 460.703, 438.737 457.792 C 439.073 453.440, 438.644 451.532, 436.323 447.050 C 432.618 439.898, 428.113 436.479, 419.500 434.284 C 415.650 433.303, 412.132 431.923, 411.682 431.217 C 410.425 429.245, 404.528 430.735, 396.165 435.138 C 392.131 437.262, 387.473 439, 385.816 439 C 384.158 439, 378.337 437.200, 372.880 435 C 362.045 430.631, 360 430.235, 360 432.500 C 360 433.494, 359.005 434, 357.049 434 C 342.499 434, 333.861 442.681, 331.977 459.198 C 330.583 471.425, 329.834 471.241, 326.348 457.819 C 325.024 452.721, 322.865 446.202, 321.552 443.332 C 319.343 438.507, 318.195 437.483, 306.331 429.750 C 287.618 417.552, 282.087 410.359, 278.460 393.500 C 276.328 383.592, 275.726 342.665, 277.180 306.500 C 278.294 278.782, 277.846 280.104, 290.031 268.609 C 301.898 257.415, 309.836 253.157, 316.253 254.545 C 322.694 255.937, 335.735 263.636, 346.500 272.401 C 349.250 274.640, 351.725 276.704, 352 276.986 C 352.275 277.269, 355.864 280.425, 359.975 284 C 364.086 287.575, 368.152 291.191, 369.010 292.036 C 372.388 295.358, 377.605 298.666, 379.615 298.758 C 381.469 298.843, 381.800 298.155, 382.299 293.178 C 382.612 290.055, 382.644 283.955, 382.371 279.623 C 381.911 272.322, 381.573 271.333, 377.748 266.123 C 375.478 263.030, 371.569 258.474, 369.060 255.998 C 366.552 253.523, 359.596 246.399, 353.602 240.168 C 341.359 227.440, 337.719 224.806, 327.640 221.377 C 319.707 218.679, 303.969 217.439, 297.734 219.020 M 549.124 302.613 C 544.047 309, 540.130 314.463, 540.419 314.752 C 541.481 315.814, 547.942 309.865, 552.887 303.273 C 557.802 296.720, 560.710 291, 559.126 291 C 558.702 291, 554.201 296.226, 549.124 302.613 M 379 299.409 C 379 299.599, 379.675 300.315, 380.500 301 C 381.365 301.718, 382 301.815, 382 301.229 C 382 300.671, 381.325 299.955, 380.500 299.638 C 379.675 299.322, 379 299.219, 379 299.409 M 466 334 C 464.718 334.828, 464.754 334.972, 466.250 334.985 C 467.212 334.993, 468 334.550, 468 334 C 468 332.780, 467.887 332.780, 466 334 M 466 337.118 C 457.655 341.754, 457.760 342.352, 466.286 338.748 C 470.511 336.961, 473.974 335.163, 473.984 334.750 C 474.015 333.323, 471.477 334.076, 466 337.118 M 430.181 345.251 C 425.956 346.775, 419.688 349.193, 416.250 350.624 C 410.524 353.007, 410 353.480, 410 356.266 C 410 359.989, 403.453 366.517, 398.645 367.587 L 395.500 368.287 399.750 370.103 C 404.602 372.175, 405.291 373.983, 401.250 374.035 C 398.658 374.069, 398.615 374.141, 400.500 375.285 C 401.600 375.953, 402.655 377.400, 402.845 378.500 C 403.355 381.454, 403.999 381.685, 404.007 378.917 C 404.010 377.588, 404.871 375.198, 405.920 373.607 C 406.969 372.016, 407.636 370.216, 407.403 369.607 C 407.150 368.949, 408.300 368.457, 410.239 368.393 C 412.033 368.334, 415.954 367.563, 418.953 366.680 C 421.953 365.797, 424.639 365.306, 424.924 365.590 C 425.208 365.874, 423.739 367.712, 421.659 369.674 C 419.381 371.823, 418.101 373.821, 418.439 374.702 C 418.748 375.506, 419 377.027, 419 378.082 C 419 380.602, 420.815 380.520, 423.090 377.896 C 424.357 376.435, 426.686 375.574, 430.707 375.078 C 433.893 374.685, 438.944 373.108, 441.931 371.573 C 446.398 369.278, 448.295 368.860, 452.610 369.218 C 457.064 369.587, 457.930 369.377, 458.335 367.826 C 458.709 366.398, 459.867 365.974, 463.656 365.882 C 467.929 365.777, 468.146 365.674, 465.500 365.008 C 463.850 364.592, 454.512 364.491, 444.750 364.784 C 432.335 365.156, 427 364.990, 427 364.231 C 427 363.635, 429.587 361.685, 432.750 359.899 C 435.913 358.113, 441.650 354.650, 445.500 352.203 C 449.350 349.755, 453.582 347.078, 454.904 346.253 C 458.339 344.109, 456.237 343.288, 446.181 342.845 C 439.034 342.530, 436.779 342.870, 430.181 345.251 M 317.038 344 C 317.147 345.426, 330.198 353.774, 339 358.050 C 342.575 359.786, 346.305 362.060, 347.289 363.103 C 348.273 364.147, 349.905 365, 350.917 365 C 351.928 365, 354.438 365.703, 356.495 366.562 C 361.602 368.696, 362.653 368.037, 362.406 362.855 C 362.291 360.460, 362.153 357.139, 362.099 355.477 C 362.001 352.481, 361.872 352.413, 348.091 348.100 C 336.555 344.488, 332.717 343.725, 325.591 343.623 C 320.866 343.555, 317.017 343.725, 317.038 344 M 308.500 366.243 C 309.600 366.893, 312.300 367.514, 314.500 367.623 C 320.125 367.902, 323.850 368.962, 328.692 371.662 C 334.047 374.648, 339.287 374.713, 342.170 371.830 C 344.252 369.748, 344.460 369.727, 347.251 371.330 C 348.852 372.248, 350.879 373, 351.755 373 C 353.012 373, 352.852 372.471, 351 370.500 C 349.708 369.125, 348.110 368, 347.448 368 C 346.786 368, 345.685 367.325, 345 366.500 C 343.973 365.263, 340.492 365.005, 325.128 365.030 C 310.324 365.055, 306.911 365.303, 308.500 366.243 M 354.813 436.683 C 355.534 436.972, 356.397 436.936, 356.729 436.604 C 357.061 436.272, 356.471 436.036, 355.417 436.079 C 354.252 436.127, 354.015 436.364, 354.813 436.683 M 346.813 437.683 C 347.534 437.972, 348.397 437.936, 348.729 437.604 C 349.061 437.272, 348.471 437.036, 347.417 437.079 C 346.252 437.127, 346.015 437.364, 346.813 437.683 M 345.686 454.984 C 340.616 456.564, 340 457.702, 340 465.488 C 340 471.763, 340.467 473.664, 343.490 479.708 C 348.003 488.727, 358.704 499.305, 362.517 498.515 C 363.883 498.232, 366.125 497.766, 367.500 497.481 C 368.875 497.195, 370 497.420, 370 497.981 C 370 498.541, 369.373 499, 368.607 499 C 367.841 499, 366.946 499.698, 366.618 500.552 C 366.244 501.528, 366.431 501.851, 367.123 501.424 C 367.728 501.050, 368.632 501.364, 369.131 502.122 C 369.871 503.246, 370.311 503.143, 371.519 501.559 C 372.954 499.678, 373.002 499.694, 373.079 502.059 C 373.122 503.401, 373.402 503.887, 373.700 503.137 C 374.158 501.986, 374.391 501.986, 375.199 503.137 C 375.878 504.103, 376.029 503.699, 375.717 501.750 C 375.475 500.238, 375.714 499, 376.247 499 C 376.780 499, 376.949 497.931, 376.621 496.625 C 376.043 494.321, 377.668 477.999, 378.565 477.102 C 379.186 476.480, 388.243 476.160, 389.679 476.709 C 390.327 476.957, 391.158 479.959, 391.524 483.380 C 392.448 492.009, 393.893 493.501, 403.905 496.167 L 412.311 498.405 415.789 494.453 C 424.861 484.143, 429.798 473.636, 430.230 463.716 C 430.467 458.273, 429.645 457.179, 424.372 455.919 C 419.237 454.691, 349.293 453.860, 345.686 454.984 M 396 462.230 C 391.325 462.632, 382.775 462.751, 377 462.496 C 364.424 461.940, 367.390 463.663, 380.748 464.673 C 388.896 465.289, 412.193 463.479, 414.884 462.021 C 416.539 461.124, 407.748 461.221, 396 462.230 M 564.079 487.583 C 564.127 488.748, 564.364 488.985, 564.683 488.188 C 564.972 487.466, 564.936 486.603, 564.604 486.271 C 564.272 485.939, 564.036 486.529, 564.079 487.583 M 559.575 488.759 C 559.167 489.166, 558.533 489.537, 558.167 489.582 C 554.911 489.980, 552.123 491.395, 552.699 492.357 C 553.192 493.180, 552.980 493.173, 551.939 492.333 C 550.825 491.432, 550.051 491.489, 548.556 492.583 C 546.320 494.217, 544.599 494.458, 545.493 493.011 C 545.848 492.437, 545.430 492.282, 544.494 492.640 C 543.609 492.980, 543.131 493.898, 543.431 494.681 C 543.731 495.464, 543.551 495.840, 543.029 495.518 C 542.205 495.009, 534.377 499.621, 506 517.338 C 502.425 519.571, 499.288 521.557, 499.029 521.753 C 498.770 521.949, 499.145 522.472, 499.863 522.916 C 500.836 523.517, 500.657 523.857, 499.159 524.248 C 497.612 524.653, 497.291 524.397, 497.762 523.137 C 498.297 521.707, 498.158 521.676, 496.663 522.893 C 495.722 523.658, 495.189 524.522, 495.478 524.811 C 495.768 525.101, 495.260 526.160, 494.350 527.165 C 493.066 528.584, 492.385 528.735, 491.306 527.839 C 490.255 526.967, 489.633 526.967, 488.758 527.842 C 487.881 528.719, 488.073 529.004, 489.550 529.015 C 491.175 529.028, 491.250 529.192, 490 530 C 489.175 530.533, 488.950 530.997, 489.500 531.030 C 490.050 531.063, 489.150 531.691, 487.500 532.425 C 484.974 533.549, 484.775 533.875, 486.243 534.484 C 487.533 535.020, 487.819 535.874, 487.343 537.769 C 486.809 539.896, 486.988 540.219, 488.402 539.676 C 489.338 539.317, 489.861 539.417, 489.563 539.898 C 489.266 540.379, 490.030 541.038, 491.261 541.362 L 493.500 541.951 491.331 543.475 C 490.138 544.314, 488.338 544.732, 487.331 544.405 C 485.895 543.940, 485.806 544.029, 486.919 544.819 C 488.025 545.605, 486.480 547.003, 479.919 551.156 C 475.289 554.087, 467.974 558.851, 463.665 561.743 C 459.355 564.634, 455.636 567, 455.399 567 C 454.620 567, 433.508 581.482, 433.167 582.250 C 432.983 582.663, 432.196 583, 431.417 583 C 430.637 583, 430 583.482, 430 584.070 C 430 587.478, 513.990 536.846, 537.425 519.311 C 554.678 506.401, 563.716 495.824, 560.687 492.089 C 559.713 490.888, 559.814 490.743, 561.250 491.281 C 562.212 491.642, 563 491.556, 563 491.091 C 563 489.729, 560.385 487.949, 559.575 488.759 M 547.500 491 C 547.840 491.550, 548.316 492, 548.559 492 C 548.802 492, 549 491.550, 549 491 C 549 490.450, 548.523 490, 547.941 490 C 547.359 490, 547.160 490.450, 547.500 491 M 556 492.059 C 556 492.641, 556.450 492.840, 557 492.500 C 557.550 492.160, 558 491.684, 558 491.441 C 558 491.198, 557.550 491, 557 491 C 556.450 491, 556 491.477, 556 492.059 M 372.813 497.683 C 373.534 497.972, 374.397 497.936, 374.729 497.604 C 375.061 497.272, 374.471 497.036, 373.417 497.079 C 372.252 497.127, 372.015 497.364, 372.813 497.683 M 502.095 520.941 C 501.376 521.386, 501.194 522.002, 501.691 522.309 C 502.188 522.616, 503.185 522.504, 503.905 522.059 C 504.624 521.614, 504.806 520.998, 504.309 520.691 C 503.812 520.384, 502.815 520.496, 502.095 520.941 M 492 526 C 492 526.550, 492.450 527, 493 527 C 493.550 527, 494 526.550, 494 526 C 494 525.450, 493.550 525, 493 525 C 492.450 525, 492 525.450, 492 526 M 485 530 C 484.099 530.582, 483.975 530.975, 484.691 530.985 C 485.346 530.993, 486.160 530.550, 486.500 530 C 487.267 528.758, 486.921 528.758, 485 530 M 482.863 536.761 C 481.647 538.312, 481.678 538.361, 483.153 537.208 C 484.503 536.153, 484.900 536.153, 485.324 537.208 C 485.680 538.095, 485.867 538.126, 485.921 537.309 C 486.057 535.261, 484.288 534.944, 482.863 536.761 M 483.676 540.402 C 483.301 541.380, 484.205 542.004, 486.671 542.466 C 488.614 542.831, 490.458 542.875, 490.769 542.564 C 491.079 542.254, 490.406 542, 489.274 542 C 488.141 542, 486.955 541.325, 486.638 540.500 C 485.914 538.613, 484.382 538.562, 483.676 540.402 M 284 550.393 C 284 550.609, 284.698 551.054, 285.552 551.382 C 286.442 551.723, 286.843 551.555, 286.493 550.989 C 285.906 550.038, 284 549.583, 284 550.393 M 289.944 553.819 C 291.289 554.910, 294.889 557.200, 297.944 558.909 C 302.014 561.185, 302.772 561.412, 300.777 559.758 C 299.280 558.516, 295.680 556.226, 292.777 554.668 C 289.399 552.855, 288.380 552.550, 289.944 553.819 M 214.269 642.693 C 215.242 642.947, 216.592 642.930, 217.269 642.656 C 217.946 642.382, 217.150 642.175, 215.500 642.195 C 213.850 642.215, 213.296 642.439, 214.269 642.693 M 223.264 643.718 C 224.784 643.947, 227.034 643.941, 228.264 643.704 C 229.494 643.467, 228.250 643.279, 225.500 643.286 C 222.750 643.294, 221.744 643.488, 223.264 643.718 M 374.302 643.746 C 379.693 643.926, 388.243 643.925, 393.302 643.744 C 398.361 643.563, 393.950 643.416, 383.500 643.417 C 373.050 643.418, 368.911 643.566, 374.302 643.746 M 534.813 643.683 C 535.534 643.972, 536.397 643.936, 536.729 643.604 C 537.061 643.272, 536.471 643.036, 535.417 643.079 C 534.252 643.127, 534.015 643.364, 534.813 643.683 M 541.776 643.733 C 544.128 643.945, 547.728 643.942, 549.776 643.727 C 551.824 643.512, 549.900 643.339, 545.500 643.343 C 541.100 643.346, 539.424 643.522, 541.776 643.733" stroke="none" fill="black" fill-rule="evenodd"/>
</svg>